<?xml version="1.0" encoding="utf-8"?>
<!-- Generator: Adobe Illustrator 27.4.1, SVG Export Plug-In . SVG Version: 6.00 Build 0)  -->
<svg version="1.1" xmlns="http://www.w3.org/2000/svg" xmlns:xlink="http://www.w3.org/1999/xlink" x="0px" y="0px"
	 viewBox="0 0 807.2 550.3" style="enable-background:new 0 0 807.2 550.3;" xml:space="preserve">
<style type="text/css">
	.st0{fill:#131514;}
	.st1{fill:#FFFFFF;}
	.st2{fill:#FF3333;}
	.st3{fill:#FFFF99;}
	.st4{fill:#FF4444;}
	.st5{fill:#FFFF99;}
	.st6{fill:#FFFF99;}
	.st7{fill:#141515;}
	.st8{fill:#828581;}
	.st9{fill:#FF6633;}
	.st10{fill:#FF7722;}
	.st11{fill:#FFFF99;}
	.st12{fill:#FF3333;}
	.st13{fill:#FF5533;}
	.st14{fill:#FFFF00;}
	.st15{fill:#FF7722;}
	.st16{fill:#FF8833;}
	.st17{fill:#FF5500;}
	.st18{fill:#141615;}
	.st19{fill:#00FF00;}
	.st20{fill:#FF3333;}
	.st21{fill:#FFFF99;}
	.st22{fill:#121413;}
	.st23{fill:#131413;}
	.st24{fill:#FF3333;}
	.st25{fill:#00FFFF;}
	.st26{fill:#33CCFF;}
	.st27{fill:#FF5533;}
	.st28{fill:#FE7F8D;}
	.st29{fill:#D2525E;}
	.st30{fill:#E15C67;}
	.st31{fill:#FF99FF;}
	.st32{fill:#FF6666;}
	.st33{fill:#FF66FF;}
	.st34{fill:#141514;}
	.st35{fill:#FFFF99;}
	.st36{fill:#FF5533;}
	.st37{fill:#131515;}
</style>
<g id="Ebene_2">
	<g>
		<polygon class="st0" points="-712.1,-43.1 -712.1,-43.1 -712.1,-43.1 		"/>
		<path class="st0" d="M806.5,226.2L806.5,226.2c-0.9-5-1.4-10.2-6.9-12.7h0c-0.1-2.6-2.4-2.8-4.1-3.7c-14.7-5.7-29.4-3.5-44.1-0.2
			c-6.8,0.8-13.2,3.5-19.8,5c-5.3,2.1-10.3,4.9-16,6c-2,1-4,2.1-6,3.1c-2.3,1.2-4.7,2.5-7,3.8c-1.7,0.8-3.3,1.6-4.9,2.5
			c-5,3.3-10,6.5-15.1,9.8c-0.6,0-1.3-0.1-1.9-0.1c0,0,0,0,0,0c-0.6-3.8-2.3-7.1-3.9-10.5c-0.9-1.8-1.8-3.7-1.1-5.6
			c2.9-8.1,3.6-16.8,6.9-24.7h0c0.7-3.6,1.4-7.2,2.1-10.8c0,0,0,0,0,0c4.2-14,6.4-28.4,9.1-43.7c-17,6.7-33.7,11.9-49.4,19.5l-0.1,0
			c-2.1,0.7-4.2,1.3-6.8,2.1l2-15c0.1-7.3,0.2-14.7,0.3-22c-0.1-0.8-0.3-0.8-0.3-2c-1.3-9.1-2.5-18.2-4.8-27
			c-0.7-2.7-1.5-5.3-2.2-7.9h-0.8c0,0,0,0,0,0l0.4,0h0.4C626.8,74,619,57.5,606.8,43.3l0,0l-6.3-8.7c-8.6-7.4-16.9-15.1-27-20.5
			c-4.1-2.2-8.1-4.8-12.6-6.4c-6.2-2.7-12-3.6-18-5.2h0v0c-1.7-0.5-2.2-0.4-3.4-0.8c0,0,0,0,0,0c-10.6-2.1-21.7-1.5-32.3-1.7
			c-1.4,0.3-2.4,0.3-3.8,0.4c-22.7,2.4-43.3,11.2-59.7,27.2c-0.3,0.3-0.7,0.7-1,1c-1.1,1.3-2.3,2.6-3.4,3.9
			c-5.1,6.3-10,12.7-14,19.8c-0.9,1.5-1.4,3.4-2.3,5.1l-3.4,7.2c-1.9-3.6-3.5-6.8-5.1-9.9c-3-4.3-5.4-7.8-8.9-11.3
			c-3.8-6.1-12.5-12.4-17.1-17.8c-6.3-4.9-13-9.1-20-13c-1.4-0.5-2.1-0.7-3-1.3c-2.7-1-5.3-2-8-3c-6.7-1.8-13.2-3.9-20.1-5.1
			c-18.6-3.3-37-2.8-54.8,2.7c-35.8,11.2-61.5,36.2-75.9,70.8c-7.9,21-10.4,42.5-7.4,64.8c0.4,3.1,2.1,7,0.8,9
			c-2.1,3.2-5,0.6-8.1-1.1c-0.1-0.1-1.4-0.9-1.6-0.9l-5.5-2.1c0,0,0,0,0,0c-2.9-1.8-6.2-2.7-9.4-3.7c-10-3.8-20-7.6-30.1-11.1
			c-1.3-0.5-3.1-2.2-4.5-0.8c-1.1,1.2-0.5,3.1-0.2,4.7c1.3,6.4,2.4,12.8,3.8,19.1c2.7,12.4,5.2,24.8,9,36.9
			c-6.6-0.8-12.4-4.1-18.9-5.3c-6.4-1.2-12.4-3.9-19.4-4.7c3.5,9.1,5.4,18,9.2,26.3c0.4,1.6,0.7,3.2,1.1,4.7
			c4.2,8.9,6.8,18.6,11.7,27.5c-4.6-3.2-9.2-6.3-13.8-9.5c-1.6-0.6-2.2-0.9-3.9-2c-0.7-0.2-0.9-0.1-2-1c-3.3-1.7-6.6-3.4-9.9-5.1
			c-1.5-0.5-2.1-0.6-3-1.2l0,0c-2.7-0.9-5.3-1.8-8-2.8c0,0,0,0,0,0v0c-0.7-0.3-1.2-0.4-2-0.9c0,0,0,0-0.1,0c-1.3-0.7-2.6-1.4-4-2.1
			c-3.3-0.8-6.7-1.5-9.9-2.5c-17.6-5.4-35.6-6.2-53.8-5.4c-3.5,0.2-7.1,0.3-10.3,2.1c-9.7,2.7-15.2,9.2-17,18.9c0,2,0,4,0,6
			c0.3,1.3,0.8,2.5,1,3.8c2.1,12.4,7.7,23,16,32.3c0,0,0,0,0,0c8.1,10.3,18.4,18.1,29.8,24.3c3.4,1.8,3.9,2.6,0.8,5.6
			c-11.9,11.1-11.7,22.7,0.3,33.6c8.6,7.8,19.2,11.3,30.4,13.4c8.4,1.6,16.9,2.2,25.6,2.1c-2.9,11.7,1.1,18.3,12.4,21
			c2.9,0.7,5.8,1.3,8.6,2c3.3,0,6.7,0,10,0c10.3-1.6,20.6-3,30.3-7c1.8-0.7,2.7,0,3.9,1.2c3.2,3.3,6.5,6.6,9.8,9.8
			c16,14.4,32.4,28.2,49,42c1.2,1.3,1.3,2.4-0.2,3.7c-2,1.8-3.8,3.8-5.6,5.7c-4.4,4.4-4.4,4.4,1,7.9c21,13.7,42.4,26.6,63.8,39.7
			c0.7,0.4,1.3,0.8,2,1.1c27.8,15.5,55.4,31.4,83.6,46c15.3,7.9,30.1,16.6,46.1,23c4.5,2.3,8.5,6.1,14.2,4.1c0.3-0.1,0.6-0.2,1-0.3
			c1.8-1.5,3.8-2.5,6-3c23.3-13.7,46.8-27.1,69.1-42.6c25-17.5,49.5-35.6,72.2-56c0,0,0,0,0,0c6.3-4.8,12.1-10.4,17.8-15.9
			c7.4-7.1,14.7-14.3,22-21.5c6.8-7.6,14.5-14.2,20.9-22.1c0.8-1.2,1.6-2.3,3-2.9c2-2.3,4-4.6,6-6.9c6-5.3,10.5-11.9,16-17.7
			c1.8-1.8,3.1-2.7,6-1.6c7.1,2.8,14.9,2.8,22.3,4.1l7.7,0.2c4.6-1.4,9.7-1.2,14-3.7c0.3-0.1,0.6-0.2,1-0.3c6.2-4.4,8.8-10,6.1-17.8
			c21.4,0.2,41.1-3.8,56.8-19.6c-0.1-0.3,0-0.5,0.3-0.5c2.5-3.7,4-7.7,4.8-12c-0.6-2.7-1.3-5.3-1.9-8c-2-4.4-4.9-8.4-9-11
			c-3.1-1.9-2.1-3,0-4.5c7.6-5.6,13.6-12.8,18.9-20.5l0.1,0c2-3,4-6.1,6-9.1c0.1-0.8,0.4-0.9,0.9-2c3.1-7,5.1-14.4,6.3-21.9
			C806.6,230.5,806.8,228.3,806.5,226.2z M580.8,447.9C580.8,447.9,580.8,447.9,580.8,447.9C580.8,447.8,580.8,447.8,580.8,447.9
			C580.8,447.8,580.8,447.8,580.8,447.9z"/>
		<path class="st0" d="M-636.1,158.9L-636.1,158.9l-2-2C-637.4,157.6-636.7,158.2-636.1,158.9z"/>
	</g>
</g>
<g id="svg206">
	<g id="Ebene_2_00000142857206036372949810000002307940754792063120_">
		<polygon id="polygon1" class="st1" points="168.1,352.6 149.8,363.6 123.8,367 112.3,357.7 112.3,344.4 90.8,341.4 62,331.5 
			51.2,313.9 60.2,298.6 17.1,257.5 9.9,224.2 25.9,213.3 59.8,214.7 104.6,228.2 148.5,257.5 127.9,304.4 		"/>
		<polygon id="polygon2" class="st1" points="680.1,251.6 729.2,221.2 770.6,213.2 794,216.9 797.2,244.1 777.5,267.4 763.3,289.7 
			778.8,306.6 772.5,321.1 745.9,329.8 719.9,335.2 716,345.3 711.7,355.8 680.1,355.8 668.9,347.6 691.5,315.1 699.3,300.5 		"/>
		<polygon id="polygon3" class="st1" points="280.3,274.9 314.1,352.6 553.1,345.2 564.8,263.5 433.6,249.8 		"/>
		<polygon id="polygon4" class="st1" points="235.9,190.9 211.2,134.5 219,74.6 235.9,45.6 268.9,23.7 297,13.5 328.6,10.8 
			364.9,17.5 394.6,39.5 421.6,76.9 451.4,35.1 487,10.8 523,6.8 576.8,23.7 607.4,55.1 627.9,116.2 626.9,161.2 603.6,210.8 
			573,232.2 532.1,238.2 364.9,237.6 326.6,243.6 284.7,235.9 260,219 		"/>
	</g>
	<g id="Ebene_1">
		<path class="st2" d="M643.9,298.4c-3.1-3.6-7.6-2.5-11.5-3.3c-8.9-2-17.9-3.3-26.8-5.1c-2.9-0.6-4,0.4-4.4,3
			c-3.1,22.1-9,43.5-16.9,64.3c-0.9,2.5-0.7,4.3,1.7,6c3.8,2.7,7.5,5.5,11.8,7.4c1.3,0.6,3.1,2.5,4.5-0.7l7.1-12.8
			c2.4-3.1,4.2-6.8,6.2-10.2C625,330.7,634.4,314.5,643.9,298.4L643.9,298.4z"/>
		<path id="path20" class="st3" d="M643.9,298.4c-3.1-3.6-7.6-2.5-11.5-3.3c-8.9-2-17.9-3.3-26.8-5.1c-2.9-0.6-4,0.4-4.4,3
			c-3.1,22.1-9,43.5-16.9,64.3c-0.9,2.5-0.7,4.3,1.7,6c3.8,2.7,7.5,5.5,11.8,7.4c1.3,0.6,5.1-1.4,6.5-4.5c0,4.9,0.9,19.6-2.1,18.5
			c-1.7,0.2-2.6-1.5-4.1-1.8c-4.1-1.8-7.4-5.2-11.9-6.2c-4.6-4-10-6.8-15.2-9.9c-2.4-1.4-3-3.3-1.6-5.5
			c7.3-11.7,11.6-24.5,15.2-37.6c3.6-13.1,5.9-26.4,6.8-39.9c0.2-3.6-0.1-7.3-0.2-11c3.1,6.8,9.9,5.5,15.4,6.8
			c5.5,1.4,11,2.1,16.6,3c1.1,0.2,2.7,0.4,3.3-0.2c1.2-1.2-0.2-2.4-0.8-3.5c-7-13-13.9-26.1-21.1-39c-1-1.7-0.7-3.7-2-5.3
			c-2.8-3.5-5.8-5.1-10.2-3.6c3.7-3.4,6.2-2.7,9.9,1.1c17.8,18.7,30,41,42.1,63.3C645,296.6,644.2,297.3,643.9,298.4L643.9,298.4
			L643.9,298.4z"/>
		<path id="path23" class="st4" d="M615.3,380.3c0-8.6,2.2-15.8,6.6-22.8c11.2-17.6,21.7-35.7,32.2-53.7c1.8-3,3.8-3.7,6.9-3.1
			c6.7,1.3,13.3,2.5,20,3.8c4.9,1,5.1,1.2,1.6,5.1c-7.6,8.6-15.1,17.3-22.8,25.8c-13.8,15.1-28.4,29.4-42.9,43.9
			C616.6,379.6,616.1,379.8,615.3,380.3L615.3,380.3L615.3,380.3z"/>
		<path id="path24" class="st5" d="M691.5,296.3c-12.6-2.4-24.2-4.6-35.8-6.8c-2.5-0.5-3.9-1.7-5.2-4c-5.5-10-11-19.9-16.9-29.6
			c-1.9-3-0.1-3.2,1.6-4.1c8.2-4.2,16.5-8.2,24.6-12.8c2.9-1.7,3.8-0.9,5,1.6c5.8,12.2,11.6,24.4,17.5,36.6
			C685.1,283.5,688.2,289.6,691.5,296.3L691.5,296.3L691.5,296.3z M670.7,278.8c4.2,1,3.7-0.6,2.8-2.4c-4.1-8.2-8.2-16.4-12.3-24.6
			c-1.3-2.7-2.9-2.8-4.3-0.5c-2,3.1-4.6,5.2-7.6,7c-1.3,0.8-2,1.5-1.2,3.1c4.2,8.4,7.9,17.5,19.8,17
			C669.1,278.5,670.4,278.8,670.7,278.8L670.7,278.8z"/>
		<path id="path28" class="st6" d="M621.1,213.7c-4.6,1.6-7.2,5.4-10,8.9c-2-0.8-0.8-1.7,0-2.6c7.5-8.4,14-17.4,19-27.5
			c0.6-1.3,1.5-2.3,2.6-2.9c13-6.4,25.9-12.8,39.5-19.4c-1.2,5.1-2.2,9.7-3.3,14.2c-0.6,0.1-1.2,0.1-1.8,0.2
			C651.4,193.9,636.3,203.9,621.1,213.7L621.1,213.7L621.1,213.7z"/>
		<path id="path35" class="st7" d="M670.7,168.2c-0.3,1.6-1.6,1.9-2.8,2.2c-1.1,0.3-2.5,0.3-2.6-1.3c-0.1-1.6,1.5-2,2.7-2.3
			C669.3,166.4,670.2,167.1,670.7,168.2L670.7,168.2L670.7,168.2z"/>
		<path id="path37" class="st8" d="M716,328.7c4.4,0,8.8,0,13.2,0.1C724.8,330,720.4,330.2,716,328.7z"/>
		<path id="path46" class="st0" d="M27.1,217.6c-1.4-0.8-1.8-3.8-4-2.6c-2.6,1.5,0.1,3.7,0,5.6c-2.4-1.4-4-3.1-2.3-6
			c1.2-2,2.9-1.9,5.1-1.3C29.1,214.2,26.9,216.1,27.1,217.6z"/>
		<path class="st9" d="M226,347.2c-10-11.4-19.5-23-28.9-34.9c-1-1.2-1.9-2.2-3.8-1.6c-11.2,3.5-22.6,6-34.2,7.9
			c-2.3,0.4-2.3,1.4-1.1,2.9l0,0c14.2,14.7,28.2,29.6,43.4,43.3c2.8,2.5,4.5,3.2,7.7,0.5c5.7-4.8,11.9-9,17.8-13.5
			C229.3,349.6,227,348.3,226,347.2z"/>
		<path class="st10" d="M260.5,379.9c-4.5-5.1-9-10.2-13.5-15.3c-0.7-0.7-1.4-1.3-2-2c-4.9-4.4-9.8-4.3-14.8,0.2
			c-0.4,0.3-0.8,0.5-1.2,0.8v0c-4.3,3.4-8.5,6.9-12.8,10.2c-2,1.5-2.5,2.6-0.3,4.4c3.2,2.6,6.1,5.6,9.1,8.4
			c6.5,5.7,13.1,11.3,19.5,17.2c2.6,2.5,4.4,2,6.5-0.5c2.6-3,5.5-5.8,8.2-8.6l1.8-2C265.4,387.3,265.3,385.4,260.5,379.9
			L260.5,379.9z"/>
		<path id="path51" class="st11" d="M171,162.6c-0.5-1.3-1.7-1.1-2.7-1.2c-0.3-2.6-0.7-4.6,3.2-2.7c12.2,5.7,24.5,11.4,37,16.6
			c3.5,1.5,5.8,3.5,7.3,6.7c1.7,3.6,3.8,6.8,6.3,9.8c0.5,2.6,4.8,4.6,1,7.7c-1.4,1.7-2.7,3.4-4.1,5.1c-1.8,2.2-3.8,4.3-4.9,6.9
			c-0.9,1.1-1.9,2.2-2.8,3.3c-0.3-0.1-0.6-0.2-0.9-0.2c-0.3-0.7-0.5-1.6-1-2.2C196,196.1,183.5,179.4,171,162.6L171,162.6L171,162.6
			z"/>
		<path class="st12" d="M416.6,518.8C416.6,518.8,416.6,518.8,416.6,518.8C416.5,518.8,416.5,518.8,416.6,518.8L416.6,518.8
			L416.6,518.8z"/>
		<path class="st13" d="M282.1,366.7c-6.5-18.2-16.9-42.4-20.8-61.5c-1.5-7.1-3.5-14-4-21.3c-8.1,0.7-17.3,3.7-25.2,5.5
			c-7.3,1.6-14.4,3.7-21.6,5.6c-2.1,0.5-4.1,1.1-5.5,2.9c6.3,9.5,14,17.9,21.2,26.7c7.8,9.5,16.5,18.3,24.8,27.3l0,0
			c1.7,1.4,3.7,2.5,4,5c1,1,2,2,3,3c5.2,1.9,7.2,10.7,11.7,13.5c1,0,3.5,0.6,4.5,0.3C280.3,372.2,284.2,372.8,282.1,366.7
			L282.1,366.7z"/>
		<path id="path62" class="st14" d="M293,265.7c21.5-3.8,43.1-6.8,64.9-8.4c4.7-0.3,9.7,0.4,14.2-1.7c22.6-0.8,45.3-2.7,68-2.1h2.1
			c12,0,24,0.1,36,0.1c2.1,1.8,4.7,0.7,7,0.9c4.7,0,9.3,0.1,14,0.1c1.5,1.6,3.3,0.8,5,0.9"/>
		<path class="st14" d="M366.9,257.8c-28.2,2.5-56.5,5.3-84.2,11.8c-2.9,0.7-5.7,1.4-8.5,2.4c-5.9,2.1-7.9,5.6-7.3,12.5"/>
		<path class="st14" d="M290.1,354.6c-0.4-0.7-0.7-1.5-1-2.2c-10.9-20.5-18.1-42.2-21.8-65.2c-0.2-1-0.3-1.9-0.4-2.7l-1.4,0.1
			c0.4,1.9,0.4,3.9,0.7,5.9c0.2,1.9,2.6,3-0.1,3.3c-1.8,0.1-6.8,2.5-6.7-2.4c0-2.4-0.3-5.3-2.3-7.1c0.5,7.3,2.3,14.6,3.8,21.7
			c3.9,19.1,11.9,36.9,18.4,55.1c2.2,6.1,1.3,7.7-5,9.3c-0.9,0.2-2,0.1-3,0.2l0,0c0.8,2.3,2,1.9,3.8,0.9c3.7-2,7.6-3.8,11.3-5.7
			C291.5,363.2,292.8,359.4,290.1,354.6L290.1,354.6z"/>
		<path class="st15" d="M367.2,481.6c-4.9-7.5-9.8-15-14.7-22.5c-2.7-4.1-4.7-10.6-8.4-11.8c-3.9-1.3-8.2,4.5-12.5,7
			c-0.1,0.1-0.3,0.2-0.4,0.2c-6.8,4.2-6.9,4.3-4.5,11.8c1.1,3.5,1,7.8,4.8,10c16.4,9.6,32.9,19.1,49.4,28.6l0,0
			c0.2-0.3,0.5-0.5,0.8-0.8C376.9,496.6,372.1,489.1,367.2,481.6L367.2,481.6z"/>
		<path class="st16" d="M284,415.6L284,415.6c-2.8-4.7-5.7-9.3-8.2-14.1c-1.6-3-2.9-3.6-5.1-0.7c-0.5,0.6-1.2,1.1-1.8,1.7
			c-0.6,0.7-1.2,1.4-1.8,2.1c-2.7,3-5.5,6-8.2,8.9h0c-3.1,3.6-6.1,7.4-9.4,10.7c-2.7,2.7-1.9,4.1,1,5.9
			c12.2,7.4,24.2,15.2,36.5,22.3c8.1,4.6,16,9.6,25.8,13.7C303.9,447.9,293.3,432.1,284,415.6z"/>
		<path id="path74" class="st17" d="M421,255.5c7.5-1.7,15-0.9,22.5-0.9c6.2,0,12.5-0.9,18.6,0.8C448.4,255.5,434.7,255.5,421,255.5
			L421,255.5L421,255.5z"/>
		<path id="path88" class="st18" d="M445.2,160.3c-3.2-12-6.4-24-6.3-36.6c0-4.1,0-8.1,0-12.2c0-10.8,2-21.3,6.2-31.3
			c11.2-26.5,43.9-28.6,61.7-13.5c13.4,11.4,19.6,26.7,24.2,42.9c2.3,8.1,4.1,16.4,4.2,24.9v17.3c-1,15.4-5.1,29.5-16.4,40.7
			c-2.6,2.6-5.7,4.5-8.8,6.4c-19.7,6.9-36.5,2.7-50.4-13C453,178.3,449.3,169.2,445.2,160.3L445.2,160.3L445.2,160.3z M488.1,89.9
			c-0.2,7.8,2.1,14.7,7.9,20.1c3.1,2.9,6.8,4.5,10.9,3.1c4.5-1.6,6.7-5.3,7.1-9.9c0.8-9.3-2.2-17.2-8.6-23.9
			c-2.8-3-6.2-4.8-10.2-3.3c-4.2,1.5-6.5,4.9-7,9.4C488,86.9,488.1,88.4,488.1,89.9L488.1,89.9L488.1,89.9z"/>
		<path class="st19" d="M205.2,298.3C205.2,298.3,205.2,298.2,205.2,298.3L205.2,298.3L205.2,298.3z"/>
		<path class="st20" d="M183.4,276.7c-4.9-4.7-9.7-9.5-14.2-14.6c-1.9-2.1-3.6-3-6.2-1.6c-1.2,2.1-2.4,4.3-3.6,6.5
			c-3.2,5.8-5.5,12.2-9.3,17.7h0l0,0c-1.3,6.9-6.1,12.2-8.2,18.7c-0.6,1.9-1.1,3.2,0.9,4.5c1.5,1,2.8,2.4,4.2,3.6
			c0.7-2.9,3.6-2.3,5.4-3.4c9.2-5.8,18.9-10.9,28.8-15.6C186.2,290.1,187.2,280.4,183.4,276.7L183.4,276.7z"/>
		<path class="st21" d="M193.6,268.4c-7.7-3.6-15.2-7.6-22.8-11.5c-3.7-1.9-6.3-0.7-7.8,3.6c2.6-1.4,4.2-0.5,6.2,1.6
			c4.5,5,9.4,9.8,14.2,14.6c3.8,3.7,2.8,13.4-2,15.7c-9.9,4.7-19.5,9.8-28.8,15.6c-1.8,1.1-4.8,0.5-5.4,3.4h0
			c13.6-3.9,27.1-8,40.7-11.8c2.4-0.7,3.7-1.8,4.1-4.2c1.3-7.4,2.5-14.8,4.1-22.1C196.8,270.5,196.1,269.6,193.6,268.4L193.6,268.4z
			"/>
		<path id="path115" class="st22" d="M173.7,313.9c-0.1,0.1-0.5,0.4-1,0.5c-2.9,0.7-5.7,1.3-8.6,2c-0.9,0.2-1.7-0.1-1.9-1
			c-0.2-1.4,0.9-0.8,1.6-1c2.5-1,4.4-3.8,7.7-2.7C172.5,312,173.4,312.2,173.7,313.9L173.7,313.9L173.7,313.9z"/>
		<path class="st23" d="M169,311.5c-0.5,0.1-1,0.3-1.5,0.6c0.9,0.1,1.8,0.4,2.9,0.7C169.9,312.2,169.4,311.8,169,311.5L169,311.5z"
			/>
		<path id="path124" class="st23" d="M418.1,92.6c3,2.3,4.2,5.2,3,9C420,98.6,418.5,95.8,418.1,92.6z"/>
		<path class="st24" d="M499,428.9c-1.5,3.3-2.5,5.5-3.5,7.7c-10.4,21.3-20.7,42.7-31,64c-0.7,1.5-2.2,3.1-0.4,4.9h0
			c18-11.1,35.3-23,52.2-35.8C512.7,455.5,504.5,443.3,499,428.9L499,428.9z"/>
		<path class="st12" d="M490,421.3c-8.2,1.7-16.6,2.4-25,3.3c-12.4,1.3-24.9,0.9-37.3,0.9c-17.8,0-35.3-2.5-52.6-6.3
			c-3.1-0.7-6.2-1.1-9.2-1.6c-2.6,1.4-3.2,4.2-4.8,6.4c-1.6,3.2-3.1,6.5-4.8,9.7c-0.8,1.6-0.9,2.9,0.1,4.5
			c9.6,14.3,18.8,28.8,29,42.6c0,0,0.1,0,0.1,0c8.3,11.7,17,23,26.6,33.8c1.3,1.2,2.5,2.3,3.8,3.5c0,0,0,0,0,0
			c0.2,0.2,0.4,0.5,0.6,0.7h0v0c2.4,3.5,5.9,5.8,8.8,8.7c1.9,2,3.5,1.2,5-0.5h0c3.2-0.9,5.8-2.9,8.4-4.7
			c7.5-13.6,14.6-27.8,21.9-41.5c8-14.9,15.6-29.9,23.5-44.8c2.2-4.2,3.6-8.9,6.5-12.8C491.3,422.3,490.9,421.7,490,421.3L490,421.3
			z M429.2,526.8c0.3,0,0.7,0.1,1.1,0.1l0,0C429.9,526.9,429.5,526.9,429.2,526.8L429.2,526.8z"/>
		<path id="path140" class="st25" d="M670.7,278.8c-0.2,0-1.5-0.3-2.8-0.3c-11.9,0.5-15.5-8.6-19.8-17c-0.8-1.6-0.1-2.4,1.2-3.1
			c3-1.8,5.7-3.9,7.6-7c1.5-2.3,3-2.2,4.3,0.5c4,8.2,8.2,16.4,12.3,24.6C674.3,278.2,674.9,279.9,670.7,278.8L670.7,278.8
			L670.7,278.8z"/>
		<path class="st26" d="M668.9,184.6c-0.6,0.1-1.2,0.1-1.8,0.2c0,0,0,0,0,0c-15.7,9.1-30.7,19.1-45.9,29c0,0,0,0,0,0
			c-4.6,1.6-7.2,5.4-10,8.9c6.2,6,12.5,11.9,18.6,18.1c1.5,1.5,2.3,2.2,4.4,0.8c6.6-4.4,13.4-8.6,20.3-12.6c2.7-1.6,4-3.7,4.7-6.5
			C662.3,209.8,665.6,197.2,668.9,184.6L668.9,184.6L668.9,184.6z"/>
		<polygon class="st27" points="171,162.6 171,162.6 171,162.6 		"/>
		<polygon class="st28" points="432.1,373.6 432.1,373.6 432.1,373.6 		"/>
		<path id="path151" class="st29" d="M421.2,375.9c-3.9-1.2-8-2.5-12.1-2.5c-3.9,0.7-5.9,1.8-10,0c-12.7,0.6-22,7.4-30,16.6
			c-1,1.1-2,2.2-2.9,3.3c-7.4-1.9-14-5.5-21.4-9.1c8.5-7.9,18.2-13.8,28.8-17.1c0.6,0.7,0.9,1.1,1.7,0.8c9.6-3.7,19.6-3.7,29.6-2.7
			c1.9,0.2,4.5-0.1,6,1.9c-0.7,0.4-1.7,1.4-2.2,1.7c-1.1,0.7-3.4-1-2.9,1.4c0.4,1.7,1.9,0.8,3.2,1c3.9,0.7,7.8,1.4,11.6,2.1
			c1.3,0.2,1.1,1.5,0.9,2.2L421.2,375.9L421.2,375.9z"/>
		<path id="path152" class="st30" d="M421.1,375.5c0.2-0.8,0.8-1.6-0.5-1.9c-3.9-0.7-7.8-1.4-11.6-2c-1.2-0.2-3.1,0.5-3.4-1.1
			c-0.5-2.5,2-1.5,3.1-2.1c0.5-0.3,1.1-0.6,1.8-1c-1.5-2-3.5-1.5-5.4-1.7c-10-1-20-0.9-29.6,2.8c-0.9,0.3-1.6,0.1-2.2-0.7
			c15.2-6.2,30.5-5.6,45.7-0.5c4.6,1.5,9.3,3.3,13.2,6.4c-0.9,2.9,3.3,2,3.2,4.5c-1.4,1.3-2.8-0.9-4.2-0.4
			C427.8,376.9,424.4,376.2,421.1,375.5L421.1,375.5L421.1,375.5z"/>
		<path id="path154" class="st23" d="M508.1,395.4c5.2-3.4,10.8-5.9,16.1-9.1c0.4-0.2,1.2,0.2,1.8,0.4c-0.8,2.6-0.1,5,0.5,7.5
			c0.2,1.1-1.8,1.8-3,2.1c-3,0.7-5.9,4-9.2-0.2C513.4,394.9,510.2,395.6,508.1,395.4L508.1,395.4L508.1,395.4z"/>
		<path class="st28" d="M525.2,383.3c-20.5-21.8-48.2-26.9-75-16.4c-2.9,1.1-3.6,3-2.8,5.8c0.5,1.9-0.6,4.9-1.4,7.9
			c-5.3-2.7-11.5-5.6-13.8-7c-0.8,2.9,3.3,2,3.2,4.5c-1.4,1.3-2.8-0.9-4.2-0.4l0.1,0l-0.1,0h0c-3.3-0.7-6.7-1.5-10-2.2
			c-3.9-1.2-7.9-2-12-2c-3.3,0-6.6,0-10,0c-12.7,0.6-22,7.4-30,16.6c-1,1.1-2,2.2-2.9,3.3c10.3,4.3,21.2,6.2,32.1,8.2
			c8.2,1.6,16.5,2.3,24.9,2.6c8.9,0.4,13,0.6,22.3,0.3c15.4,0.2,35.9-3.9,50.6-8.2h0h0C506.2,393.1,516.2,389.5,525.2,383.3
			L525.2,383.3z"/>
		<path id="path161" class="st23" d="M490.5,400.1c2.1-0.8,4.1-1.5,6.2-2.2c0.8-0.2,1.7-0.4,2,0.7c0.2,1-0.6,1.6-1.4,1.7
			c-2.1,0.4-4.3,0.7-6.5,1.1C490.6,401,490.5,400.6,490.5,400.1L490.5,400.1L490.5,400.1z"/>
		<path id="path167" class="st23" d="M476.7,409.2c-1.8,0.5-3.1,0.8-4.1-0.3c-0.2-0.2,0-1.1,0.2-1.2
			C474.5,406.5,475.4,407.7,476.7,409.2z"/>
		<path class="st31" d="M572.2,402.4c-4.3-3.4-8.6-6.7-12.8-10.3c-1.6-1.4-2.5-0.7-3.8,0.3c-7,5.9-14.8,10.5-22.7,15h0
			c-6,2.6-11.9,5.3-17.9,8c-3.5,0.3-4.5,2.9-4.9,5.8c-0.5,4.4,3.4,11.4,7.3,13.6c5.2,2.9,10.3,5.8,16.1,7.8c2.5,0.9,3.8,0.5,5.5-1.2
			c6.3-6.4,12.7-12.7,19-19c0.7-0.9,1.4-1.9,2.1-2.8c0,0,0,0,0,0c4.1-4.5,8.1-9.1,12.3-13.6C573.7,404.5,573.7,403.6,572.2,402.4
			L572.2,402.4z"/>
		<polygon class="st32" points="359.9,420.1 359.9,420.1 359.9,420.1 		"/>
		<path class="st32" d="M362.1,416.6v-0.2l0,0c0,0,0,0,0,0c-2.7-1-5.4-2-8-3.1h0c-22-6.8-41.6-18.1-60.6-31.2
			c4.9,10.1,9.8,20.2,14.7,30.3l0,0.1c2.9,2.8,3.8,6.8,5.9,10.1c1.9,3.2,3.6,6.6,5.8,9.6c2.5,3.4,2.9,8.3,7.1,10.5l0.8,0.6
			c1.5-0.9,3.2-1.7,4.6-2.8c9.1-6.8,18.2-13.6,27.4-20.4C360.8,419.1,362.5,418.5,362.1,416.6L362.1,416.6z"/>
		<path class="st33" d="M625.6,278.6c-7-13-13.9-26.1-21.1-39c-1-1.7-0.7-3.7-2-5.3c-2.8-3.5-5.8-5.1-10.2-3.6
			c-7.2,3.2-14.2,6.8-21.9,8.8c-20.4,5.4-41,5.4-61.5,1.6c-12.9-2.3-25.5-6.4-36.7-13.6c-6.7-2.9-12-7.9-18-11.9v0
			c-9-8-16.2-17.4-23-27.5c-3.8,6.3-6.2,13-11.9,17.4c-3,5.6-7.4,9.9-12.1,13.9l0,0c-2.6,2-5.3,4.1-7.9,6.1
			c-0.3,0.4-47.5,17.3-47.9,17.6l-70.1-5.1c-5.5-3.8-35.1-19.8-40.2-24.2l0,0c-1.5-1.5-3.3-2.8-4.6-4.4c-1.9-2.6-3.9-1.9-4.8,0.3
			c-2.1,4.7-5.3,8.8-6.6,13.8l0,0c-6.8,15.7-11.3,32-14.9,48.7c-1.9,8.6-4,17.2-4.9,26.1c0.3,0,0.6,0.1,0.9,0.3
			c1.4-1.8,3.4-2.4,5.5-2.9c7.2-1.9,14.4-4,21.6-5.6c7.9-1.8,15.5-4.8,23.6-5.5c2.1,1.8,2.3,4.4,2.3,6.8c0,4.9,4.7,4.5,6.5,4.4
			c2.7-0.2,4.3-0.9,4-2.8c-0.2-2,1-6.5,0.6-8.5c-1.4-7-2.7-8.3,4-10.4c6.5-2,12.5-3.7,19.2-4.9c21.5-3.8,40.7-7.4,62.5-8.9
			c4.7-0.3,12.1,0.7,16.6-1.4l3-0.3l142.9,0.8c20.7,1.4,40.7,4,60.9,8.8c1.7,0.4,2.2-0.1,5.1,1.5c2.8,0.3,3.8,2.1,6.1,3l0.1,0.3
			c3.1,6.8,10.2,5.2,15.7,6.5c5.4,1.4,11.3,2.2,16.8,3.1c1.1,0.2,2.8,0.5,3.4,0C628,281.3,626.2,279.6,625.6,278.6L625.6,278.6z"/>
		<path id="path181" class="st7" d="M394.6,39.5c-3.1-0.6-5-1-5.4-3.4c0-0.3,0.5-1.1,0.7-1.1C392.2,35.3,392.9,37.1,394.6,39.5z"/>
		<path id="path182" class="st34" d="M377.1,26.6c-1.5,0-2.9,0-3-2c1.1-0.4,2.3-1.6,3.5-0.4C378.4,25,378,25.9,377.1,26.6z"/>
		<path class="st0" d="M395.1,157.7c0,0.1,0,0.2,0,0.3C395.2,157.9,395.2,157.8,395.1,157.7z"/>
		<polygon class="st7" points="397,211.5 397,211.5 397,211.5 		"/>
		<path class="st7" d="M581.3,447.9C581.3,447.9,581.3,447.9,581.3,447.9C581.3,447.9,581.3,447.9,581.3,447.9L581.3,447.9
			L581.3,447.9z"/>
		<path class="st7" d="M226.1,198.6C226.1,198.6,226.1,198.6,226.1,198.6C226.1,198.6,226.1,198.6,226.1,198.6L226.1,198.6z"/>
		<path class="st7" d="M228,418.7C228,418.7,228.1,418.7,228,418.7L228,418.7L228,418.7z"/>
		<path class="st7" d="M580.1,283.8c-0.3,3,0.2,6.6-0.4,9.1c-2.5,9.6,1.9,18.9,0.4,28.4c-0.3,1.6,1.3,2.2,2,3.2l0,0
			c3.4-8.8,5.3-18.1,5.8-27.5c0.2-3.8,3-7.7,0.2-11.5c-1.9-3.6-1.4-6.9,1-10c0.2-2.7-1.2-4.8-3.6-5.1c-4.7-0.6-8.6-3.7-13.4-3.9
			c0,0.5,0.1,1,0.3,1.5c0.1,0.2,0.2,0.4,0.4,0.6c0.2,0.2,0.4,0.3,0.6,0.5C579.4,272.3,580.7,277.6,580.1,283.8L580.1,283.8z"/>
		<path class="st7" d="M589.1,275.6c-2.4,3.1-2.9,6.4-1,10C588.2,282.2,590.6,279.1,589.1,275.6z"/>
		<path class="st7" d="M651.1,378.7C651.1,378.7,651.1,378.7,651.1,378.7C651.1,378.7,651.1,378.7,651.1,378.7L651.1,378.7
			L651.1,378.7z"/>
		<path class="st7" d="M621.1,159.6C621.1,159.6,621.1,159.6,621.1,159.6L621.1,159.6L621.1,159.6z"/>
		<path class="st7" d="M807,226.1c-0.9-4.9-1.4-10.2-6.9-12.7h0c-0.1-2.6-2.4-2.8-4.1-3.7l0,0c-14.7-5.7-29.4-3.5-44.1-0.2l0,0
			c-6.8,0.8-13.2,3.5-19.8,4.9c-5.3,2.1-10.3,4.9-16,6c-2,1-4,2.1-6,3.1c-2.3,1.2-4.7,2.5-7,3.8c-1.7,0.8-3.3,1.6-4.9,2.5
			c-5,3.3-10,6.5-15.1,9.8l0,0c-0.6,0-1.3-0.1-1.9-0.1l0,0c0,0,0,0,0,0c-0.6-3.8-2.3-7.1-3.9-10.5c-0.9-1.8-1.8-3.7-1.1-5.6
			c2.9-8.1,3.6-16.8,6.9-24.7h0c0.7-3.6,1.4-7.2,2.1-10.8c0,0,0,0,0,0c4.2-14,6.4-28.4,9.1-43.7c-17,6.7-33.7,11.9-49.4,19.5l0,0
			l-0.1,0c-2.1,0.7-4.2,1.3-6.8,2.1l2-15c0.1-7.3,0.2-14.7,0.3-22c-0.1-0.8-0.3-0.8-0.3-2c-1.3-9.1-2.5-18.2-4.8-27
			c-0.7-2.7-1.5-5.3-2.2-7.9h-0.8c0,0,0,0,0,0l0,0l0,0l0.4,0h0.4c-5.6-17.7-13.4-34.1-25.5-48.3l0,0l0,0l0,0l-6.3-8.7
			c-8.6-7.4-16.9-15.1-27-20.5c-4.1-2.2-8.1-4.8-12.6-6.4c-6.2-2.7-12-3.6-18-5.2h0v0c-1.7-0.5-2.2-0.4-3.4-0.8c0,0,0,0,0,0
			c-10.6-2.1-21.7-1.5-32.4-1.7c-1.4,0.3-2.4,0.3-3.8,0.4c-22.7,2.4-43.3,11.2-59.7,27.2l0,0c-0.3,0.3-0.7,0.7-1,1
			c-1.1,1.3-2.3,2.6-3.4,3.9c-5.1,6.3-10,12.7-14,19.8c-0.9,1.5-1.4,3.4-2.3,5.1l-3.4,7.2c-1.9-3.6-3.5-6.8-5.1-9.9
			c-3-4.3-5.4-7.8-8.9-11.3c-3.8-6.1-12.5-12.4-17.1-17.8c-6.3-4.9-13-9.1-20-13c-1.4-0.5-2.1-0.7-3-1.3c-2.7-1-5.3-2-8-2.9
			c-6.7-1.8-13.2-3.9-20.1-5.1C319.5,0,301,0.5,283.3,6c-35.8,11.2-61.5,36.2-75.9,70.8c-7.9,21-10.4,42.5-7.4,64.8
			c0.4,3.1,2.1,7,0.8,9c-2.1,3.2-5,0.6-8.1-1.1c-0.1-0.1-1.4-0.9-1.6-0.9l-5.5-2.1c0,0,0,0,0,0c-2.9-1.9-6.2-2.7-9.4-3.7l0,0
			c-10-3.8-20-7.6-30.1-11.1c-1.3-0.5-3.1-2.2-4.5-0.8c-1.1,1.1-0.5,3.1-0.2,4.7c1.3,6.4,2.4,12.8,3.8,19.1
			c2.7,12.4,5.2,24.8,8.9,36.9l0,0c-6.6-0.8-12.4-4.1-18.9-5.3c-6.4-1.2-12.4-3.9-19.4-4.7c3.5,9.1,5.3,18,9.2,26.3
			c0.4,1.6,0.7,3.2,1.1,4.7c4.3,8.9,6.8,18.6,11.7,27.5c-4.6-3.1-9.2-6.3-13.8-9.4c-1.6-0.6-2.2-0.9-3.9-1.9c-0.7-0.2-0.9-0.1-2-1
			c-3.3-1.7-6.6-3.4-9.9-5.1c-1.5-0.5-2.1-0.6-3-1.2l0,0c-2.7-0.9-5.3-1.9-8-2.8c0,0,0,0,0,0v0c-0.7-0.3-1.2-0.4-2-0.9
			c0,0,0,0-0.1,0c-1.3-0.7-2.6-1.4-4-2.1c-3.3-0.8-6.7-1.5-9.9-2.5c-17.6-5.4-35.6-6.2-53.8-5.4c-3.5,0.2-7.1,0.3-10.3,2.1l0,0
			c-9.7,2.7-15.2,9.2-17,18.9c0,2,0,4-0.1,6c0.3,1.3,0.8,2.5,1,3.8c2.1,12.4,7.7,23,16,32.3c0,0,0,0,0,0
			c8.1,10.3,18.4,18.1,29.8,24.3c3.4,1.8,3.9,2.6,0.8,5.6c-11.9,11.1-11.7,22.7,0.3,33.6c8.6,7.8,19.2,11.3,30.4,13.4
			c8.4,1.6,16.9,2.2,25.6,2.1c-2.9,11.7,1.1,18.3,12.4,21c2.9,0.7,5.8,1.3,8.7,2c3.3,0,6.7,0,10,0c10.3-1.6,20.6-3,30.3-7
			c1.8-0.7,2.7,0,3.9,1.2c3.2,3.3,6.6,6.6,9.8,9.8c16,14.4,32.4,28.2,49,42l0,0c1.2,1.3,1.3,2.4-0.2,3.7c-2,1.8-3.8,3.8-5.6,5.6
			c-4.4,4.4-4.4,4.4,1,7.9c21,13.7,42.4,26.6,63.8,39.6c0.7,0.4,1.4,0.8,2,1.1c27.8,15.5,55.4,31.4,83.6,46
			c15.3,7.9,30.1,16.6,46.1,23l0,0c4.5,2.3,8.6,6.1,14.3,4.1c0.3-0.1,0.6-0.2,1-0.3c1.8-1.5,3.8-2.5,6-3
			c23.3-13.7,46.9-27.1,69.1-42.6c25-17.5,49.5-35.6,72.2-56c0,0,0,0,0,0c6.3-4.8,12.1-10.4,17.8-15.9c7.4-7.1,14.7-14.3,22-21.5
			c6.8-7.6,14.5-14.2,20.9-22.1c0.8-1.2,1.6-2.4,3-2.9c2-2.3,4-4.6,6-6.9l0,0c6-5.3,10.5-11.9,16-17.7c1.8-1.9,3.1-2.7,6-1.6
			c7.1,2.8,14.9,2.8,22.3,4.1l7.7,0.1c4.6-1.4,9.7-1.2,14-3.7c0.3-0.1,0.6-0.2,1-0.3c6.2-4.4,8.8-10,6.1-17.8
			c21.4,0.2,41.1-3.8,56.8-19.6c-0.1-0.3,0-0.5,0.3-0.5c2.5-3.7,4-7.7,4.8-12c-0.6-2.7-1.3-5.3-1.9-8c-2-4.4-4.9-8.4-9-11
			c-3.1-1.9-2.1-3,0-4.5c7.6-5.6,13.6-12.8,18.9-20.5l0.1,0c2-3,4-6.1,6-9.1c0.1-0.8,0.4-0.9,0.9-2c3.1-7,5.1-14.4,6.3-21.9
			C807.2,230.5,807.4,228.2,807,226.1L807,226.1z M682.1,277.3c3,6.2,6,12.4,9.3,19l0,0c-12.6-2.4-24.2-4.6-35.8-6.8
			c-2.5-0.5-3.9-1.7-5.2-4c-5.5-10-11-19.9-16.9-29.6c-1.9-3-0.1-3.2,1.6-4.1c8.2-4.2,16.6-8.2,24.6-12.8c2.9-1.7,3.8-0.9,5,1.6
			C670.4,252.9,676.3,265.1,682.1,277.3L682.1,277.3z M632.7,189.8c13-6.4,25.9-12.8,39.5-19.4c-1.2,5.1-2.2,9.7-3.3,14.2
			c-3.3,12.6-6.6,25.2-9.8,37.8c-0.7,2.9-2,5-4.7,6.5c-6.9,4-13.6,8.2-20.3,12.6c-2.1,1.4-2.9,0.7-4.4-0.8
			c-6.1-6.1-12.4-12.1-18.6-18.1h0c-2-0.8-0.8-1.7,0-2.6c7.5-8.4,14-17.4,19-27.5C630.7,191.4,631.6,190.3,632.7,189.8z M432.7,85.4
			c1.6-10.8,5.4-20.8,9.6-30.7l0,0c2-2.7,3.9-5.3,5.9-8h0c3.9-4.5,7.6-9.2,12.2-13c18.5-15.3,39.8-21.1,63.6-20.3
			c28.5,1,51,13.4,69.2,34.5c7.5,8.6,12.6,18.8,17.7,28.9v0.1c2.3,7.9,5.2,15.7,7,23.8c3.2,15,4.7,30.1,3.3,45.6
			c-1.4,15-4.7,29.2-11.3,42.7c-0.9,1.9-1.7,3.9-2.8,5.6c0,0,0,0,0,0c-4.2,6.1-8.9,11.8-14.1,17c-0.4,0.8-0.4,0.6-0.9,1.2l0,0
			c-4.5,2.6-8,6.8-13,8.6c-0.2,0.3-0.5,0.4-0.9,0.3c-11.2,6.5-23.3,9.5-36.1,9.8c-2.7,0.2-5.3,0.8-8,0.2c-16.2,0.7-31.4-2.8-46-9.7
			c-5.4-2.6-10.6-5.6-15.9-8.5c-3-2.3-3.8-3.4-5.7-5.1c-6.9-6.3-12.6-13.5-18.3-20.9c-1.4-2.2-1.5-2.6-2.8-5.7
			c-0.7-1.6-0.7-1.6-1.3-3.2c-1.9-4.6-3.7-8-5.8-13.9c-0.9-2.5-1.4-5.1-2-7.7c-3.5-15.5-5-31.2-5.1-47.1
			C431.2,101.7,431.5,93.5,432.7,85.4L432.7,85.4z M237.2,61.5c15.4-26.7,38.7-41.8,69.2-45.9c26.9-3.6,51.3,2.6,72.8,19.2
			c10.5,8.1,18.8,18.2,25.2,29.9l0,0c0.4,0.9,2.7,4.8,3.1,5.7l6,13.5c4.2,8.1,5.9,18.7,7.5,27.5c2.4,12.8,3.7,25.7,3.1,38.8
			c-0.2,4.2-0.1,8.9-1.6,12.9c-2,12.7-7,23.9-14.2,34.6c0,0,0,0,0,0c-3.4,4.9-7.2,9.7-11.3,14c-3.7,2.5-6.8,5.9-10.8,7.9
			c-0.1,0.3-0.3,0.4-0.5,0.3c-14.9,10.1-31.5,14.9-49.5,14.6c-2.7,0-5.3,0-8,0c-21.2,0.1-40.3-6.6-57.9-18.2
			c-1.6-1.1-3.2-1.7-5.1-2.8c-5.1-3.6-7.8-6-11.3-10.8l0,0c0,0,0,0,0,0c0,0,0,0,0,0l0,0c-5.8-7.8-12.3-15.1-16.6-24
			c-9.6-17.8-14.1-36.8-14.4-57C222.8,100.3,226.4,80,237.2,61.5L237.2,61.5z M175.5,212.8c-2.5-17.7-4.9-34.6-7.2-51.4
			c-0.3-2.5-0.7-4.6,3.2-2.7c12.2,5.7,24.5,11.3,37,16.6c3.5,1.5,5.8,3.5,7.3,6.7c1.7,3.6,3.8,6.8,6.3,9.8h0c0.5,2.6,4.8,4.6,1,7.7
			l0,0c-1.4,1.7-2.7,3.4-4.1,5.1c0,0,0,0,0,0c-1.8,2.2-3.8,4.3-4.9,6.9c0,0,0,0,0,0c-0.9,1.1-1.9,2.2-2.8,3.3
			c-4,12.9-8,25.9-11,39.1c-0.8,3.6-2.2,4.6-5.6,2.7c-5.2-2.9-10.5-5.7-16.5-7l0,0l0,0c-4.1-3.7-9.7-4.4-14.4-7.1
			c-3.4-1.9-5.9-4.1-6.9-7.9v0c-5-11.1-10.1-22.3-15.6-34.5C153.1,204.7,164.2,207.7,175.5,212.8L175.5,212.8z M150.2,284.7
			L150.2,284.7c3.8-5.5,6-11.9,9.3-17.7c1.2-2.1,2.4-4.3,3.6-6.5c1.5-4.3,4.1-5.5,7.8-3.6c7.6,3.9,15.1,7.9,22.8,11.5
			c2.5,1.2,3.1,2.1,2.5,4.9c-1.6,7.3-2.8,14.8-4.1,22.1c-0.4,2.5-1.6,3.5-4.1,4.2c-13.6,3.8-27.2,7.8-40.7,11.8
			c-1.4-1.2-2.7-2.6-4.2-3.6c-2-1.3-1.6-2.6-0.9-4.5C144.2,296.8,149,291.5,150.2,284.7C150.2,284.7,150.2,284.7,150.2,284.7
			L150.2,284.7z M109.9,237.8L109.9,237.8L109.9,237.8L109.9,237.8z M150.5,355.3c-7.1,1.7-14.1,3.7-21.6,3.2
			c-9.2-0.5-11.6-4-8.3-12.5c1.4-3.6,3.1-7.2,4.9-11.4c-3.7-0.2-6.9,0.4-10,0.6c-14.2,0.6-28.6,1.6-42.3-3.9
			c-4.5-1.8-8.6-4.2-11.9-7.9c-5.1-5.6-4.7-11.9,0.8-17.1c5.2-4.9,11.6-7.5,18.3-10.2c-1.3-1.9-3.4-2-5.1-2.7
			c-20.4-8.7-38-20.9-49.9-40.2c-3.2-5.1-5.9-10.6-6.7-16.7c0,0,0,0,0,0c0.3-3.7-0.7-7.8,2.2-11l0,0c4.5-3.9,10-5.1,15.7-5.2
			c0,0,0,0,0,0l14.2,0.1c0,0,0,0,0,0c9.3,0.1,18.3,2.5,27.2,4.8c11.1,2.8,21,8.4,31.5,12.7c9.3,5.6,18.7,11.1,27.4,17.7
			c3.9,3,5.6,5.4,2.8,10.5c-6.9,12.7-13.2,25.9-19.9,38.7c-1.9,3.7-1.9,6.3,0.9,9.6c10.1,12,19.9,24.1,31,35.2
			C156.3,353.7,156.2,353.9,150.5,355.3L150.5,355.3z M201.5,364.8c-15.2-13.7-29.2-28.6-43.4-43.3l0,0c-1.2-1.5-1.3-2.6,1.1-2.9
			c11.6-1.9,23-4.4,34.2-7.9c1.8-0.5,2.8,0.4,3.8,1.6c9.3,11.9,18.9,23.5,28.9,34.9c1,1.1,3.2,2.4,1.1,4.5l0,0
			c-6,4.5-12.2,8.7-17.8,13.5C206.1,367.9,204.4,367.3,201.5,364.8L201.5,364.8z M244.6,403.8c-6.4-5.9-13-11.5-19.5-17.1l0,0
			c-3-2.8-6-5.8-9.2-8.4c-2.2-1.8-1.7-2.9,0.3-4.4c4.2-3.2,9.2-7.2,13.4-10.5c0.2-0.1,0.5-0.3,0.7-0.5c4.9-4.5,9.8-4.5,14.8-0.2l2,2
			c4.5,5.1,9,10.1,13.5,15.3c4.8,5.5,4.8,7.4,0.5,12.8l0,0c-0.6,0.7-1.2,1.4-1.8,2l0,0c-2.8,2.9-5.6,5.6-8.2,8.6
			C249,405.8,247.3,406.2,244.6,403.8L244.6,403.8z M287,452.4c-12.4-7.1-24.3-14.9-36.5-22.3c-2.9-1.7-3.7-3.1-1-5.9
			c3.3-3.4,6.3-7.1,9.4-10.7c2.7-3,5.5-6,8.2-8.9c0,0,0,0,0,0l1.8-2c0.6-0.6,1.3-1.1,1.8-1.7c2.2-2.9,3.5-2.3,5.1,0.7
			c2.5,4.8,5.5,9.4,8.2,14.1c9.3,16.5,20,32.3,28.8,50.5C303,462,295.1,457,287,452.4L287,452.4z M380.9,504.9L380.9,504.9
			c-16.5-9.5-33-19-49.4-28.6c-3.7-2.2-3.7-6.5-4.8-10c-2.4-7.6-2.3-7.6,4.5-11.8c0.1-0.1,0.3-0.2,0.4-0.2c4.2-2.5,8.5-8.3,12.5-7
			c3.7,1.2,5.7,7.6,8.4,11.8c4.9,7.5,9.8,15,14.7,22.5c4.9,7.5,9.6,15,14.5,22.5C381.4,504.4,381.2,504.7,380.9,504.9L380.9,504.9z
			 M581.3,447.9C581.3,447.9,581.3,447.9,581.3,447.9C581.3,447.8,581.4,447.8,581.3,447.9C581.4,447.8,581.4,447.8,581.3,447.9z
			 M591.1,401c-4.9,5.3-10,10.5-14.9,15.7c-12.3,12.9-24.8,25.7-38.2,37.6c-1.5,1.3-2.5,1.5-4.3,0.5c-5.3-2.7-10.5-5.3-15.5-8.5
			c-0.3,0.1-0.7,0.2-1.1,0.3c1,4.4,1.6,9,3.2,13.2c1.9,5,0.5,7.9-4.1,9.9c-16.8,12.8-34.2,24.7-52.1,35.8
			c-8.1,5.8-16.5,11.2-25.1,16.2c-2.9,1.8-5.7,3.5-8.6,5.3h0c-1.5,1.7-3,2.5-5,0.5c-2.9-2.9-6.4-5.2-8.8-8.7
			c-0.2-0.2-0.4-0.5-0.7-0.7c-1.3-1.2-2.5-2.4-3.8-3.5c-9.5-10.7-18.3-22-26.6-33.8c-10.3-13.8-19.5-28.4-29-42.6
			c-1.1-1.6-1-2.9-0.1-4.5c1.7-3.2,3.2-6.5,4.8-9.7c0,0,0,0,0,0c1.5-2.1,2.2-5,4.7-6.3c-1-1.7-2.6-0.6-3.9-0.9
			c0.4,1.9-1.3,2.4-2.2,3.5h0l0,0c-9.1,6.8-18.2,13.6-27.3,20.4c-1.4,1.1-3.1,1.8-4.6,2.8c-5.3,4-9.6,3.3-13.1-2.1
			c-4.6-7.2-9.2-14.4-13.7-21.6c-6.6-10.7-13.3-21.3-19.9-32c-1-1.6-1.7-3,1.1-4.1c6.6-2.5,13.2-5.3,19.7-8.2c1.9-0.9,3.4-0.8,5,0.3
			c0,0,0,0,0,0c12.8,10.8,27.7,17.9,43.2,23.8c0.7,0.3,1.4,0.7,2.1,1c15.9,5,32,9.3,48.7,11.3c16.3,1.9,32.7,2.3,49,1.7
			c22.1-0.8,43.9-4,64.8-11.9c6.9-2.6,13.5-6,20.3-9c5.5-4.3,12-7.2,17.2-12c1.7-1.6,3.5-3,5.1-4.6c1.5-1.6,3.1-1.6,4.8-0.4h0
			c6.7,4.6,13.3,9.3,20,13.9l0,0c2.9,2.1,5.7,4.4,8.8,6.3C594,397.6,592.6,399.3,591.1,401L591.1,401z M463.1,297.6
			c1.6,7.4,1.6,14.7,0,22.1c0.5,7.7-2.4,11.4-11.8,11.9c-6.4,0.4-12.8,0.7-19.2,1.1c-6.9,1.4-13.8,0.9-20.7,0.8
			c-1.8,0-3.6,0-5.5-0.1v0c-1.9,0-3.4-0.8-5.2-0.9c-5.1-0.3-8.8-2.5-9.9-7.8l-8.6-48.1c0-1,0-2,0-3c-0.5-3.5,1.4-5.6,4.5-5.8
			c5.8-0.5,11.5-1.7,17.3-1c2.7-0.1,4.6-0.4,8-0.9c12.3-0.1,24.7-0.2,37-0.2c8.9,0,10.2,1.3,12.1,10.1c0.5,2.3,1.1,4.5,0.7,6.8
			C463.6,287.5,462.9,292.6,463.1,297.6L463.1,297.6z M418.9,367.2c4.6,1.6,9.3,3.3,13.2,6.4c6.6,4,13.1,8.2,19.3,14.9
			c-1.5-6-2.7-10.9-4-15.7c-0.8-2.9-0.1-4.7,2.8-5.8c26.8-10.5,54.5-5.4,75,16.4c-9,6.2-19,9.8-29.2,13.1c-14.7,4.3-29.5,7.4-45,7.2
			c-9.3,1.9-18.6,0.4-27.9,0.6c-8.4-0.3-16.6-1-24.9-2.6c-10.9-2.1-21.8-4-32.1-8.2c-7.4-1.9-14-5.5-21.4-9.1
			c8.5-7.9,17.8-13.2,28.3-16.6l0,0C388.3,361.5,403.6,362.1,418.9,367.2L418.9,367.2z M487.2,330.5L487.2,330.5L487.2,330.5
			c0,0-1.3-0.6-1.4-0.6c-5.2-4.6-4.3-10.5-5.4-16.6c-2.1-12-2.7-24.1-5.2-36c-0.5-2.4-0.1-5,0.2-7.4c0.3-2.3,1.9-3.1,4.2-3.2
			c13.3-0.3,26.5,0.8,39.7,1.8c6.4,0.5,12.8,0.9,19.1,1.9c5.9,0.9,7.5,4.9,7.7,9.8c0.4,13.4-0.9,26.6-4.1,39.6
			c-1.4,5.8-5.6,8.9-12.1,9.5c-5.2,0.5-10.5,0.9-15.7,1.4c-0.3,0-0.6,0.1-0.9,0.1H493c-0.3,0-0.6-0.1-0.9-0.1
			C490.5,330.7,488.9,330.6,487.2,330.5L487.2,330.5L487.2,330.5C487.2,330.5,487.2,330.5,487.2,330.5L487.2,330.5z M372.3,327.8
			c-0.2,3.5-2.5,5-5.6,5.8c-7.1,1.8-14.3,2-21.5,2.2c-6.2,0.7-11.5,1.2-17.2,0c-2.7-0.1-5.4,0.1-8-0.3c-4.3-0.7-7.9-2.9-9.9-6.8
			c-7.1-13.4-11.3-27.7-13-42.8c-0.6-5.2,2-7.7,6.4-9.2c8.2-2.7,16.8-4,25.3-4.9c10.4-1.1,20.8-2.5,31.3-2.3
			c3.6,0.1,5.4,1.4,6.4,4.7c2.7,8.6,3.3,17.5,4.5,26.4c0.6,4.3,0.8,8.6,1.2,12.9l0,0C373.4,318.3,373.7,323,372.3,327.8L372.3,327.8
			z M602.9,382.4c0.1,0.8,0.3,1.7-0.7,2.1c-1.7,0.2-2.6-1.5-4.1-1.8c0,0,0,0,0,0c-4.1-1.8-7.4-5.2-11.9-6.2c-4.6-4-10-6.8-15.2-9.9
			c-2.4-1.4-3-3.3-1.6-5.5c7.3-11.7,11.6-24.5,15.2-37.6c3.6-13.1,5.8-26.4,6.8-39.9c0.2-3.6-0.1-7.3-0.2-11c-2.3-0.9-3.2-3.9-6-4.2
			c-10.9-3.6-22.2-5.5-33.6-6.8c-15.3-1.8-30.5-3.4-45.9-4.2c-14.5-0.7-28.9-1.8-43.4-1.9c-13.7,0-27.4,0-41.1,0
			c-18.1-0.3-36.2,0.7-54.1,2.3c-28.2,2.5-56.5,5.3-84.2,11.8c-2.9,0.7-5.7,1.4-8.5,2.4c-6.7,2.4-8.3,6.5-6.9,15.2
			c3.7,22.9,10.9,44.7,21.8,65.2c0.4,0.7,0.7,1.5,1,2.2c2.7,4.9,1.5,8.7-3.8,11.3c-3.8,1.9-7.6,3.7-11.3,5.7c-1.8,1-3,1.4-3.8-0.9
			c-4.5-2.9-6.9-8.2-12.1-10.1c0,0,0,0,0,0c-1-1-2-2-3-3c0,0,0,0,0,0c-0.3-2.5-2.3-3.6-4-5v0c-8.3-9.1-17-17.9-24.8-27.3
			c-7.2-8.8-14.9-17.2-21.2-26.7c-0.3-0.2-0.6-0.3-0.9-0.3c0.9-8.8,3-17.4,4.9-26.1c3.6-16.6,8.1-33,14.9-48.7
			c1.4-5,4.5-9.2,6.6-13.8c1-2.2,2.9-2.9,4.8-0.3c1.3,1.7,3,3,4.6,4.4c11.7,10.1,24.3,18.9,38.9,24.3
			c41.2,15.3,80.8,13.2,118.2-11.5c0.4-0.3,0.7-0.7,1-1l0,0l0,0c2.6-2,5.3-4.1,7.9-6.1c4.7-4.1,9.1-8.3,12.1-13.9h0l0,0l0,0
			c5.7-4.4,8.1-11.1,11.9-17.4c6.8,10.1,14.1,19.6,23,27.5c6,4,11.3,9,18,11.9l0,0c11.2,7.2,23.8,11.3,36.7,13.6
			c20.5,3.7,41.1,3.8,61.5-1.6c7.7-2,14.7-5.6,21.9-8.8c3.7-3.3,6.2-2.7,9.9,1.1c17.8,18.7,30,41,42.1,63.3c0.8,1.4,0,2.1-0.3,3.1
			c-9.5,16.2-18.9,32.3-28.3,48.5c-2,3.4-3.8,7.1-6.2,10.2C603.5,364.7,601.7,373.1,602.9,382.4L602.9,382.4z M659.8,335.4
			c-13.8,15.1-28.4,29.4-42.9,43.9c-0.3,0.3-0.8,0.5-1.7,1l0,0c0-8.6,2.2-15.8,6.6-22.8c11.2-17.6,21.7-35.7,32.2-53.7
			c1.8-3,3.8-3.7,6.9-3.1c6.7,1.3,13.3,2.5,20,3.8c4.9,1,5.1,1.2,1.6,5.1C675.1,318.3,667.5,326.9,659.8,335.4L659.8,335.4z
			 M787.2,246.6L787.2,246.6c-8.8,19.1-24.1,31.6-42.8,41.1c6.2,3.4,12.6,4.6,17.7,8.4c9.7,7.3,9.6,17-0.5,23.9
			c-8.3,5.6-17.9,7.3-27.5,8.6c-1.6,0.2-3.3,0.2-5,0.2c-4.4,1.2-8.8,1.4-13.2-0.1c-4.3-0.2-8.6-0.1-13.3-1.6
			c1.2,4.6,3.9,7.8,5.8,11.3c3.6,6.9,2,9.6-5.7,10.1c-7.7,0.5-15-1.3-22.3-3.4c9.5-12.6,18.8-25.3,28.3-37.7c3.1-4,3.5-7.3,1-11.9
			c-7-12.9-13.4-26-20.3-38.9c-1.9-3.5-1-5,2-7c20.6-13.8,42.4-24.6,66.9-29.5c6.2-1.2,12.5-1.9,18.8-1.4c4.2,0.3,8.1,1.7,11.1,4.8
			l0.1,0C792.1,231.4,789.6,239,787.2,246.6L787.2,246.6z"/>
		<path class="st7" d="M247.1,364.6l-2-2C245.7,363.3,246.4,363.9,247.1,364.6L247.1,364.6z"/>
		<path class="st7" d="M800.1,213.5L800.1,213.5C800.1,213.5,800.1,213.5,800.1,213.5L800.1,213.5L800.1,213.5z"/>
		<path class="st7" d="M718.1,359.5C718.1,359.5,718,359.5,718.1,359.5C718,359.5,718,359.6,718.1,359.5L718.1,359.5L718.1,359.5z"
			/>
		<path class="st7" d="M472.1,213.5C472.1,213.5,472.2,213.5,472.1,213.5L472.1,213.5L472.1,213.5L472.1,213.5z"/>
		<polygon class="st35" points="535,392.6 535,392.5 535,392.5 		"/>
		<path class="st36" d="M171,162.6c-0.5-1.3-1.7-1.1-2.7-1.2c2.4,16.9,4.8,33.8,7.2,51.4c-11.3-5.1-22.4-8.2-34.2-12.7
			c5.5,12.2,10.5,23.3,15.6,34.5c1,3.8,3.4,6,6.9,7.9c4.7,2.6,10.2,3.4,14.4,7.1l0,0c5.9,1.3,11.2,4.1,16.5,7
			c3.4,1.9,4.8,0.9,5.6-2.7c3-13.2,7-26.2,11-39.1l0,0c-0.3-0.1-0.6-0.2-0.9-0.2c0,0,0,0,0,0c-0.3-0.7-0.5-1.6-1-2.2
			C196,196.1,183.5,179.4,171,162.6"/>
		<path class="st35" d="M590.9,395.8c-3.1-1.8-5.9-4.2-8.8-6.3c-6.7-4.6-13.3-9.3-20-13.9c-1.7-1.2-3.2-1.2-4.8,0.4
			c-1.6,1.6-3.4,3.1-5.1,4.6c-5.2,4.8-11.7,7.6-17.2,12l0,0c-6.8,3-13.4,6.4-20.3,9c-20.9,7.9-42.7,11.1-64.8,11.9
			c-16.3,0.6-32.7,0.2-49-1.7c-16.7-1.9-32.8-6.2-48.7-11.3c0,0,0,0,0,0c-0.7-0.4-1.4-0.8-2.1-1c-15.5-6-30.4-13-43.2-23.8h0
			c-1.6-1.1-3.1-1.2-5-0.3c-6.5,2.9-13.1,5.7-19.7,8.2c-2.7,1-2.1,2.4-1.1,4.1c6.3,10.2,12.7,20.4,19,30.6l0,0
			c4.6,7.2,10.1,15.8,14.7,23c3.4,5.3,7.8,6,13.1,2.1c-0.3-0.2-0.5-0.4-0.8-0.6l0,0c-4.3-2.2-4.6-7.1-7.1-10.5
			c-2.2-3-3.9-6.4-5.8-9.6l0,0c-2-3.2-3.3-7.7-6-10.5l-14.5-29.9c19,13,38.6,24.3,60.6,31.2l0,0c2.7,1,5.4,2,8,3.1v0.2
			c1.3,0.2,2.9-0.8,3.9,0.9c3.1,0.5,6.2,1,9.2,1.6c17.3,3.9,34.8,6.3,52.6,6.3c12.4,0,24.9,0.4,37.3-0.9c8.3-0.9,16.7-1.6,24.9-3.3
			c0,0,0,0,0,0c0.9,0.4,1.4,1,0.7,1.9c-2.9,3.9-4.3,8.5-6.5,12.8c-7.9,14.9-15.6,29.9-23.5,44.8c-7.4,13.7-15,27.2-22.5,40.8
			c0.3-0.1,0.5,0,0.8,0.1c8.6-5,16.9-10.5,25.1-16.2c-1.9-1.8-0.3-3.4,0.4-4.9c10.3-21.4,20.7-42.7,31-64c1-2.2,2-4.4,3.5-7.7
			c5.5,14.5,13.7,26.6,17.2,40.8c4.6-2,5.9-5,4.1-9.9c-1.6-4.2-2.2-8.8-3.2-13.2l1.1-0.3l0,0c5,3.2,10.3,5.9,15.5,8.5
			c1.8,0.9,2.8,0.7,4.3-0.5c13.4-11.9,25.8-24.7,38.2-37.6l0,0c5-5.2,10-10.4,14.9-15.7C592.6,399.3,594,397.6,590.9,395.8
			L590.9,395.8z M572.4,406c-4.2,4.5-8.2,9.1-12.3,13.6l-2.1,2.8l0,0l0,0c-6.4,6.3-12.8,12.6-19,19c-1.7,1.8-3,2.1-5.5,1.2
			c-5.7-1.9-10.9-4.9-16.1-7.8c-3.8-2.1-7.8-9.2-7.3-13.6c0.4-2.9,1.4-5.5,4.9-5.8c0,0,0,0,0,0l0,0l0,0l0,0c6-2.6,11.9-5.3,17.9-8
			c7.9-4.5,15.7-9.2,22.7-15c1.2-1,2.1-1.7,3.8-0.3c4.1,3.6,8.5,6.9,12.8,10.3C573.7,403.6,573.7,404.5,572.4,406L572.4,406z"/>
		<path class="st37" d="M402.2,80.5L402.2,80.5C402.2,80.5,402.2,80.5,402.2,80.5C402.2,80.6,402.2,80.6,402.2,80.5L402.2,80.5
			L402.2,80.5z"/>
		<path class="st0" d="M357,193.7c12.7,10.5,32.9,10.1,45-2.3c2.2-2.7,4.4-5.4,6.6-8.1c1.5-3.3,3.1-6.6,4.6-9.8
			c1.9-5,2.4-9.6,3.4-15.9c0-1.5,0.5-3.1,0.7-4.6c2.1-20.8-0.5-41-7.9-60.5c-2.1-4.7-2.4-6.8-6.2-12.9l0,0
			c-8.5-16.9-32.2-24.9-50-15.8l0,0c-8.4,3.8-14,10.4-17.9,18.4c-10.8,22.2-10.3,45.4-4.5,68.7C334.9,167.8,342.2,183.2,357,193.7
			C357,193.7,357,193.7,357,193.7L357,193.7 M384.2,113.5c-5-5-7.5-11.3-8.9-17.9c-0.9-4.3,0.4-8.9,2.4-12.8c1.9-3.8,8-4.6,11.6-2.3
			c6.8,4.4,12.1,16.9,10.6,24.8C398.1,114.3,393.5,116.8,384.2,113.5z M395,158.5L395,158.5C395,158.5,395,158.5,395,158.5
			C395.1,158.5,395.1,158.5,395,158.5L395,158.5z"/>
	</g>
</g>
</svg>
