<?xml version="1.0" encoding="utf-8"?>
<!-- Generator: Adobe Illustrator 27.4.1, SVG Export Plug-In . SVG Version: 6.00 Build 0)  -->
<svg version="1.1" id="Ebene_1" xmlns="http://www.w3.org/2000/svg" xmlns:xlink="http://www.w3.org/1999/xlink" x="0px" y="0px"
	 viewBox="0 0 96.7 102.7" style="enable-background:new 0 0 96.7 102.7;" xml:space="preserve">
<style type="text/css">
	.st0{fill:#4A2800;}
	.st1{fill:url(#SVGID_1_);stroke:#8890A0;stroke-width:0.8;}
	.st2{fill:url(#SVGID_00000146494229830980333620000014406525266153875873_);stroke:#4A2800;stroke-width:1.2;}
	.st3{fill:url(#SVGID_00000107550436190647463010000011089583418912220805_);stroke:#8A6030;stroke-width:0.8;}
	.st4{opacity:0.35;fill:#E8C87A;enable-background:new    ;}
	.st5{fill:none;stroke:#C8D8F0;stroke-width:1.4;}
	.st6{fill:url(#SVGID_00000166676257179277120200000018079907508961280390_);stroke:#8890A0;}
	.st7{opacity:0.6;fill:none;stroke:#D0E8FF;stroke-width:1.2;stroke-linecap:round;enable-background:new    ;}
	.st8{fill:#3D1A00;}
	.st9{fill:none;stroke:#1A0800;stroke-width:0.3;}
	.st10{fill:url(#SVGID_00000164481496430888997680000014327218137443104677_);stroke:#8890A0;stroke-width:0.9;}
	.st11{fill:url(#SVGID_00000083770201715620088950000018181438110920465563_);stroke:#4A2800;stroke-width:1.4;}
	.st12{fill:url(#SVGID_00000159459387832449672580000008025310489230569864_);stroke:#8A6030;stroke-width:0.9;}
	.st13{fill:none;stroke:#C8D8F0;stroke-width:1.6;}
	.st14{fill:url(#SVGID_00000177442009310977319800000008502009517311014534_);stroke:#8890A0;stroke-width:1.2;}
	.st15{opacity:0.6;fill:none;stroke:#D0E8FF;stroke-width:1.5;stroke-linecap:round;enable-background:new    ;}
	.st16{fill:url(#SVGID_00000117659368237702601610000003613743090732242050_);stroke:#8890A0;stroke-width:0.8;}
	.st17{fill:url(#SVGID_00000075144103660980724110000007800354325129559462_);stroke:#4A2800;stroke-width:1.2;}
	.st18{fill:url(#SVGID_00000078728924531584506730000014511144116167626380_);stroke:#8A6030;stroke-width:0.8;}
	.st19{fill:url(#SVGID_00000085210312008311081630000017042085462953945008_);stroke:#8890A0;}
</style>
<polygon class="st0" points="65.5,24 67.9,25.3 76.5,26.7 91.2,28.5 94.7,28.5 90,26.2 80.9,24.2 70.8,23.5 "/>
<polygon class="st0" points="43.6,9.8 54.2,9.8 60.6,10.7 67.6,12.4 69.3,12.7 68,13.7 56.8,15 41.5,13.4 31,13.2 26,13 28.5,10.7 
	35.5,9.8 "/>
<polygon class="st0" points="3.7,27.9 9.2,26.4 18.7,24.5 24.1,24.2 29.9,24.2 30.4,25.4 16.4,26.9 3.7,28.6 "/>
<g transform="translate(10 14) rotate(-8 18 34)">
	
		<linearGradient id="SVGID_1_" gradientUnits="userSpaceOnUse" x1="-2095.4153" y1="371.2605" x2="-2094.0979" y2="371.2605" gradientTransform="matrix(1.9805 3.8968 0.2783 -27.7275 4055.3337 18516.4629)">
		<stop  offset="0" style="stop-color:#B0B8C8"/>
		<stop  offset="1" style="stop-color:#DCE4F0"/>
	</linearGradient>
	<polygon class="st1" points="8.5,38.5 11.2,38.5 11.2,75.4 8.5,75.4 	"/>
	
		<linearGradient id="SVGID_00000007423809771691030810000003552624997892604308_" gradientUnits="userSpaceOnUse" x1="-2823.603" y1="245.6886" x2="-2822.2859" y2="244.3713" gradientTransform="matrix(23.7664 2.8113 3.3402 -20.0034 66282.4297 12863.4189)">
		<stop  offset="0" style="stop-color:#1A0A00"/>
		<stop  offset="1" style="stop-color:#3D1A00"/>
	</linearGradient>
	<polygon style="fill:url(#SVGID_00000007423809771691030810000003552624997892604308_);stroke:#4A2800;stroke-width:1.2;" points="
		-5.9,11.9 25.7,11.9 19.1,38.5 0.6,38.5 	"/>
	
		<linearGradient id="SVGID_00000138562050337977085530000009313617902723426434_" gradientUnits="userSpaceOnUse" x1="-2783.7747" y1="-12.6273" x2="-2783.7747" y2="-13.9446" gradientTransform="matrix(22.7762 0.6959 3.201 -4.9513 63453.9883 1886.0159)">
		<stop  offset="0" style="stop-color:#C8A96E"/>
		<stop  offset="1" style="stop-color:#A07840"/>
	</linearGradient>
	<path style="fill:url(#SVGID_00000138562050337977085530000009313617902723426434_);stroke:#8A6030;stroke-width:0.8;" d="
		M9.9,11.2c8.4,0,15.1,1.4,15.1,3.3s-6.7,3.3-15.1,3.3c-8.3,0-15.1-1.4-15.1-3.3C-5.3,12.7,1.6,11.2,9.9,11.2z"/>
	<ellipse transform="matrix(-1 7.896992e-06 -7.896992e-06 -1 14.642 28.5782)" class="st4" cx="7.3" cy="14.3" rx="5.3" ry="1.4"/>
	<ellipse transform="matrix(-1 7.904529e-06 -7.904529e-06 -1 19.911 23.8361)" class="st5" cx="10" cy="11.9" rx="16.5" ry="2.9"/>
	
		<linearGradient id="SVGID_00000116216171449208824570000001869895494816330937_" gradientUnits="userSpaceOnUse" x1="-2773.5027" y1="-14.7889" x2="-2772.1855" y2="-14.7889" gradientTransform="matrix(19.8054 0.6959 2.7835 -4.9513 54968.4805 1932.218)">
		<stop  offset="0" style="stop-color:#B0B8C8"/>
		<stop  offset="1" style="stop-color:#DCE4F0"/>
	</linearGradient>
	<path style="fill:url(#SVGID_00000116216171449208824570000001869895494816330937_);stroke:#8890A0;" d="M9.9,72.1
		c7.2,0,13.2,1.4,13.2,3.3c0,1.8-5.9,3.3-13.2,3.3s-13.2-1.4-13.2-3.3C-3.3,73.5,2.6,72.1,9.9,72.1z"/>
	<path class="st7" d="M-3.3,16.1c0.9,7,2.2,13.6,4,19.8"/>
	<ellipse transform="matrix(-0.9397 0.342 -0.342 -0.9397 16.8938 20.7644)" class="st8" cx="6.6" cy="11.9" rx="1.6" ry="0.9"/>
	<ellipse transform="matrix(-1 7.896991e-06 -7.896991e-06 -1 20.0108 25.598)" class="st8" cx="10" cy="12.8" rx="1.6" ry="0.9"/>
	<ellipse transform="matrix(-0.2588 0.9659 -0.9659 -0.2588 28.5679 1.8)" class="st8" cx="13.6" cy="11.9" rx="0.9" ry="1.6"/>
	<line class="st9" x1="5.9" y1="14.1" x2="5.9" y2="14.1"/>
</g>
<g transform="translate(38 2)">
	
		<linearGradient id="SVGID_00000149347318189282646130000006008609796807853199_" gradientUnits="userSpaceOnUse" x1="-2247.3633" y1="557.5924" x2="-2246.0461" y2="557.5924" gradientTransform="matrix(3 0 0 -34 6749.9878 19024.25)">
		<stop  offset="0" style="stop-color:#B0B8C8"/>
		<stop  offset="1" style="stop-color:#DCE4F0"/>
	</linearGradient>
	
		<rect x="8" y="43.7" style="fill:url(#SVGID_00000149347318189282646130000006008609796807853199_);stroke:#8890A0;stroke-width:0.9;" width="4" height="44.8"/>
	
		<linearGradient id="SVGID_00000153686155451739791420000007619698293933327017_" gradientUnits="userSpaceOnUse" x1="-2805.8906" y1="540.7759" x2="-2804.5732" y2="539.4586" gradientTransform="matrix(35 0 0 -24.2 98195.3906 13097.0205)">
		<stop  offset="0" style="stop-color:#1A0A00"/>
		<stop  offset="1" style="stop-color:#3D1A00"/>
	</linearGradient>
	<polygon style="fill:url(#SVGID_00000153686155451739791420000007619698293933327017_);stroke:#4A2800;stroke-width:1.4;" points="
		-13.1,11.8 33,11.8 23.8,43.7 -3.9,43.7 	"/>
	
		<linearGradient id="SVGID_00000068670149628535940700000006013546410468915897_" gradientUnits="userSpaceOnUse" x1="-2805.2979" y1="353.7882" x2="-2805.2979" y2="352.471" gradientTransform="matrix(35 0 0 -6 98195.3906 2133.25)">
		<stop  offset="0" style="stop-color:#C8A96E"/>
		<stop  offset="1" style="stop-color:#A07840"/>
	</linearGradient>
	
		<ellipse style="fill:url(#SVGID_00000068670149628535940700000006013546410468915897_);stroke:#8A6030;stroke-width:0.9;" cx="10" cy="14.5" rx="23.1" ry="4"/>
	<ellipse class="st4" cx="5.4" cy="14.1" rx="7.2" ry="1.8"/>
	<ellipse class="st13" cx="10" cy="11.8" rx="24.4" ry="3.7"/>
	
		<linearGradient id="SVGID_00000034771573388091492810000013043402559749874868_" gradientUnits="userSpaceOnUse" x1="-2792.8669" y1="365.8888" x2="-2791.5498" y2="365.8888" gradientTransform="matrix(28 0 0 -6.4 78191.7109 2430.1902)">
		<stop  offset="0" style="stop-color:#B0B8C8"/>
		<stop  offset="1" style="stop-color:#DCE4F0"/>
	</linearGradient>
	
		<ellipse style="fill:url(#SVGID_00000034771573388091492810000013043402559749874868_);stroke:#8890A0;stroke-width:1.2;" cx="10" cy="88.5" rx="18.4" ry="4.2"/>
	<path class="st15" d="M-9.1,17.4c0.9,7.9,2.6,15.8,5.3,23.7"/>
	<ellipse transform="matrix(0.9397 -0.342 0.342 0.9397 -4.096 2.3249)" class="st8" cx="4.5" cy="12.8" rx="2.1" ry="1.2"/>
	<ellipse class="st8" cx="10.4" cy="11.6" rx="2.1" ry="1.2"/>
	<ellipse transform="matrix(0.2588 -0.9659 0.9659 0.2588 -0.7271 24.6794)" class="st8" cx="15.7" cy="12.8" rx="1.2" ry="2.1"/>
</g>
<g transform="translate(76 14) rotate(8 18 34)">
	
		<linearGradient id="SVGID_00000011743705646505850340000014600916440436171920_" gradientUnits="userSpaceOnUse" x1="-1814.7271" y1="672.5604" x2="-1813.4098" y2="672.5604" gradientTransform="matrix(1.9805 -3.8968 -0.2783 -27.7275 3780.9954 11637.2207)">
		<stop  offset="0" style="stop-color:#B0B8C8"/>
		<stop  offset="1" style="stop-color:#DCE4F0"/>
	</linearGradient>
	<polygon style="fill:url(#SVGID_00000011743705646505850340000014600916440436171920_);stroke:#8890A0;stroke-width:0.8;" points="
		-0.3,42 2.3,42 2.3,78.9 -0.3,78.9 	"/>
	
		<linearGradient id="SVGID_00000027601211214877579060000005148488130350637738_" gradientUnits="userSpaceOnUse" x1="-2732.2192" y1="785.3364" x2="-2730.9021" y2="784.0191" gradientTransform="matrix(23.7664 -2.8113 -3.3402 -20.0034 67545.3516 8042.5234)">
		<stop  offset="0" style="stop-color:#1A0A00"/>
		<stop  offset="1" style="stop-color:#3D1A00"/>
	</linearGradient>
	<polygon style="fill:url(#SVGID_00000027601211214877579060000005148488130350637738_);stroke:#4A2800;stroke-width:1.2;" points="
		-14.8,15.4 16.8,15.4 10.2,42 -8.2,42 	"/>
	
		<linearGradient id="SVGID_00000020358323383225419200000000028767233069763758_" gradientUnits="userSpaceOnUse" x1="-2753.7893" y1="601.4593" x2="-2753.7893" y2="600.142" gradientTransform="matrix(22.7762 -0.6959 -3.201 -4.9513 64647.0352 1076.4247)">
		<stop  offset="0" style="stop-color:#C8A96E"/>
		<stop  offset="1" style="stop-color:#A07840"/>
	</linearGradient>
	<path style="fill:url(#SVGID_00000020358323383225419200000000028767233069763758_);stroke:#8A6030;stroke-width:0.8;" d="M1,14.7
		c8.4,0,15.1,1.4,15.1,3.3c0,1.8-6.7,3.3-15.1,3.3c-8.3,0-15.1-1.6-15.1-3.3C-14.1,16.3-7.3,14.7,1,14.7z"/>
	<ellipse transform="matrix(7.318127e-06 1 -1 7.318127e-06 15.8769 19.2862)" class="st4" cx="-1.7" cy="17.6" rx="1.4" ry="5.3"/>
	<ellipse transform="matrix(7.314099e-06 1 -1 7.314099e-06 16.1403 14.2807)" class="st5" cx="0.9" cy="15.2" rx="2.9" ry="16.5"/>
	
		<linearGradient id="SVGID_00000147181978032910269350000007288112737378769544_" gradientUnits="userSpaceOnUse" x1="-2741.9048" y1="596.1724" x2="-2740.5874" y2="596.1724" gradientTransform="matrix(19.8054 -0.6959 -2.7835 -4.9513 55951.9023 1122.6226)">
		<stop  offset="0" style="stop-color:#B0B8C8"/>
		<stop  offset="1" style="stop-color:#DCE4F0"/>
	</linearGradient>
	<path style="fill:url(#SVGID_00000147181978032910269350000007288112737378769544_);stroke:#8890A0;" d="M1,75.6
		c7.2,0,13.2,1.4,13.2,3.3c0,1.8-5.9,3.3-13.2,3.3c-7.2,0-13.2-1.4-13.2-3.3S-6.2,75.6,1,75.6z"/>
	<path class="st7" d="M-12.2,19.6c0.9,7,2.2,13.6,4,19.8"/>
	<ellipse transform="matrix(-0.9397 0.342 -0.342 -0.9397 0.7956 29.5194)" class="st8" cx="-2.2" cy="14.8" rx="1.6" ry="0.9"/>
	<ellipse transform="matrix(7.314096e-06 1 -1 7.314096e-06 16.5879 15.4067)" class="st8" cx="0.6" cy="16" rx="0.9" ry="1.6"/>
	<ellipse transform="matrix(-0.2588 0.9659 -0.9659 -0.2588 19.5818 15.3411)" class="st8" cx="3.9" cy="15.2" rx="0.9" ry="1.6"/>
</g>
</svg>
