<?xml version="1.0" encoding="utf-8"?>
<!-- Generator: Adobe Illustrator 27.4.1, SVG Export Plug-In . SVG Version: 6.00 Build 0)  -->
<svg version="1.1" id="Ebene_1" xmlns="http://www.w3.org/2000/svg" xmlns:xlink="http://www.w3.org/1999/xlink" x="0px" y="0px"
	 viewBox="0 0 100 100" style="enable-background:new 0 0 100 100;" xml:space="preserve">
<style type="text/css">
	.st0{fill:#2457D6;}
	.st1{fill:none;stroke:#FFFFFF;stroke-width:8;}
	.st2{fill:#FFFFFF;}
	.st3{fill:#D94141;}
</style>
<path class="st0" d="M16,4h68c6.6,0,12,5.4,12,12v68c0,6.6-5.4,12-12,12H16C9.4,96,4,90.6,4,84V16C4,9.4,9.4,4,16,4z"/>
<path class="st1" d="M16,4h68c6.6,0,12,5.4,12,12v68c0,6.6-5.4,12-12,12H16C9.4,96,4,90.6,4,84V16C4,9.4,9.4,4,16,4z"/>
<path class="st2" d="M46,23h8c2.2,0,4,1.8,4,4v48c0,2.2-1.8,4-4,4h-8c-2.2,0-4-1.8-4-4V27C42,24.8,43.8,23,46,23z"/>
<path class="st3" d="M28,22h44c2.2,0,4,1.8,4,4v10c0,2.2-1.8,4-4,4H28c-2.2,0-4-1.8-4-4V26C24,23.8,25.8,22,28,22z"/>
</svg>
