<?xml version="1.0" encoding="utf-8"?>
<!-- Generator: Adobe Illustrator 27.4.1, SVG Export Plug-In . SVG Version: 6.00 Build 0)  -->
<svg version="1.1" id="Ebene_1" xmlns="http://www.w3.org/2000/svg" xmlns:xlink="http://www.w3.org/1999/xlink" x="0px" y="0px"
	 viewBox="0 0 100 100" style="enable-background:new 0 0 100 100;" xml:space="preserve">
<style type="text/css">
	.st0{fill:#F4C533;}
	.st1{fill:none;stroke:#FFFFFF;stroke-width:8;}
	.st2{fill:#FFF4CC;}
	.st3{fill:none;stroke:#FFF4CC;stroke-width:8;stroke-linecap:round;}
	.st4{fill:#D89A1E;}
	.st5{fill:#FFFFFF;}
</style>
<path class="st0" d="M16,4h68c6.6,0,12,5.4,12,12v68c0,6.6-5.4,12-12,12H16C9.4,96,4,90.6,4,84V16C4,9.4,9.4,4,16,4z"/>
<path class="st1" d="M16,4h68c6.6,0,12,5.4,12,12v68c0,6.6-5.4,12-12,12H16C9.4,96,4,90.6,4,84V16C4,9.4,9.4,4,16,4z"/>
<path class="st2" d="M32,30h32v34c0,8.8-7.2,16-16,16s-16-7.2-16-16V30z"/>
<path class="st3" d="M64,36h6c4.4,0,8,3.6,8,8v6c0,4.4-3.6,8-8,8h-6"/>
<path class="st4" d="M42,42h12c3.3,0,6,2.7,6,6v10c0,3.3-2.7,6-6,6H42c-3.3,0-6-2.7-6-6V48C36,44.7,38.7,42,42,42z"/>
<path class="st5" d="M39,24h18c2.8,0,5,2.2,5,5l0,0c0,2.8-2.2,5-5,5H39c-2.8,0-5-2.2-5-5l0,0C34,26.2,36.2,24,39,24z"/>
<circle class="st5" cx="40" cy="26" r="6"/>
<circle class="st5" cx="49" cy="23" r="7"/>
<circle class="st5" cx="58" cy="26" r="6"/>
</svg>
