<?xml version="1.0" encoding="utf-8"?>
<!-- Generator: Adobe Illustrator 27.4.1, SVG Export Plug-In . SVG Version: 6.00 Build 0)  -->
<svg version="1.1" id="Ebene_1" xmlns="http://www.w3.org/2000/svg" xmlns:xlink="http://www.w3.org/1999/xlink" x="0px" y="0px"
	 viewBox="0 0 100 100" style="enable-background:new 0 0 100 100;" xml:space="preserve">
<style type="text/css">
	.st0{fill:#D94141;stroke:#FFFFFF;stroke-width:8;}
	.st1{fill:#FFFFFF;}
	.st2{fill:#2F2F2F;}
	.st3{fill:#D94141;}
</style>
<circle class="st0" cx="50" cy="50" r="46"/>
<circle class="st1" cx="50" cy="50" r="34"/>
<path class="st2" d="M56.5,45.4h19.1c2,0,3.6,1.6,3.6,3.6v7.2c0,2-1.6,3.6-3.6,3.6H56.5c-2,0-3.6-1.6-3.6-3.6V49
	C52.9,47,54.5,45.4,56.5,45.4z"/>
<path class="st2" d="M60,38.3h12.3c1.4,0,2.5,1.1,2.5,2.4v6c0,1.3-1.1,2.4-2.5,2.4H60c-1.4,0-2.5-1.1-2.5-2.4v-6
	C57.5,39.4,58.6,38.3,60,38.3z"/>
<circle class="st2" cx="60" cy="59.9" r="4.2"/>
<circle class="st2" cx="72.2" cy="59.8" r="4.2"/>
<path class="st3" d="M24.9,45.8H44c2,0,3.6,1.6,3.6,3.6v7.2c0,2-1.6,3.6-3.6,3.6H24.9c-2,0-3.6-1.6-3.6-3.6v-7.2
	C21.3,47.4,22.9,45.8,24.9,45.8z"/>
<path class="st3" d="M28.3,38.6h12.3c1.4,0,2.5,1.1,2.5,2.4v6c0,1.3-1.1,2.4-2.5,2.4H28.3c-1.4,0-2.5-1.1-2.5-2.4v-6
	C25.9,39.7,27,38.6,28.3,38.6z"/>
<circle class="st3" cx="28.3" cy="60.3" r="4.2"/>
<circle class="st3" cx="40.5" cy="60.1" r="4.2"/>
</svg>
