<?xml version="1.0" encoding="UTF-8"?><svg id="Ebene_1" xmlns="http://www.w3.org/2000/svg" width="100" height="100" xmlns:xlink="http://www.w3.org/1999/xlink" viewBox="0 0 100 100"><defs><style>.cls-1{fill:#fff;}.cls-2{stroke:#fff;}.cls-2,.cls-3,.cls-4,.cls-5{stroke-width:8px;}.cls-2,.cls-6{fill:#d94141;}.cls-3{stroke:#d94141;}.cls-3,.cls-4,.cls-5{stroke-linecap:round;}.cls-3,.cls-4,.cls-5,.cls-7{fill:none;}.cls-4{stroke-linejoin:round;}.cls-4,.cls-5{stroke:#2f2f2f;}.cls-8{clip-path:url(#clippath-2);}.cls-9{clip-path:url(#clippath-1);}.cls-10{clip-path:url(#clippath-4);}.cls-11{clip-path:url(#clippath);}.cls-12{clip-path:url(#clippath-3);}</style><clipPath id="clippath"><path class="cls-7" d="m50,21c18.8,0,34,12.53,34,34,0,16.13-15.2,29-34,29s-34-12.87-34-29c0-21.47,15.2-34,34-34Z"/></clipPath><clipPath id="clippath-1"><path class="cls-7" d="m50,21c18.8,0,34,12.53,34,34,0,16.13-15.2,29-34,29s-34-12.87-34-29c0-21.47,15.2-34,34-34Z"/></clipPath><clipPath id="clippath-2"><path class="cls-7" d="m50,21c18.8,0,34,12.53,34,34,0,16.13-15.2,29-34,29s-34-12.87-34-29c0-21.47,15.2-34,34-34Z"/></clipPath><clipPath id="clippath-3"><path class="cls-7" d="m50,21c18.8,0,34,12.53,34,34,0,16.13-15.2,29-34,29s-34-12.87-34-29c0-21.47,15.2-34,34-34Z"/></clipPath><clipPath id="clippath-4"><circle class="cls-7" cx="50" cy="50" r="34"/></clipPath></defs><circle class="cls-2" cx="50" cy="50" r="46"/><circle class="cls-1" cx="50" cy="50" r="34"/><g class="cls-11"><line class="cls-5" x1="39" y1="40" x2="39" y2="68"/></g><g class="cls-9"><polyline class="cls-4" points="33.17 60.4 39 69 44.94 60.4"/></g><g class="cls-8"><path class="cls-5" d="m39,40c0-6.1,4.9-11,11-11s11,4.9,11,11"/></g><g class="cls-12"><line class="cls-5" x1="61" y1="40" x2="60.83" y2="69.09"/></g><g class="cls-10"><line class="cls-3" x1="24" y1="24" x2="76" y2="76"/></g><path class="cls-6" d="m22.29,28.18c.44.8,1.67.85,1.89.86,2.86.12,5.7-3.85,4.91-5.49-.4-.85-1.74-1.01-2.46-.97-2.9.15-5.19,4.07-4.34,5.6Z"/><path class="cls-6" d="m70.97,76.58c.44.8,1.67.85,1.89.86,2.86.12,5.7-3.85,4.91-5.49-.4-.85-1.74-1.01-2.46-.97-2.9.15-5.19,4.07-4.34,5.6Z"/></svg>