<?xml version="1.0" encoding="UTF-8"?><svg id="Ebene_1" xmlns="http://www.w3.org/2000/svg" width="76.3" height="76.3" viewBox="0 0 76.3 76.3"><defs><style>.cls-1{fill:#d94141;stroke-linejoin:round;stroke-width:8px;}.cls-1,.cls-2{stroke:#fff;}.cls-3{fill:#fff;}.cls-4{isolation:isolate;}.cls-2{fill:none;stroke-width:.45px;}</style></defs><polygon class="cls-1" points="52.3 4 24 4 4 24 4 52.3 24 72.3 52.3 72.3 72.3 52.3 72.3 24 52.3 4"/><g class="cls-4"><path class="cls-3" d="m13.23,40.95l2.67-.26c.16.9.49,1.56.98,1.98.49.42,1.16.63,1.99.63.88,0,1.55-.19,2-.56.45-.37.67-.81.67-1.31,0-.32-.09-.59-.28-.82-.19-.23-.52-.42-.99-.59-.32-.11-1.05-.31-2.2-.59-1.47-.37-2.5-.81-3.1-1.34-.83-.75-1.25-1.66-1.25-2.74,0-.69.2-1.34.59-1.94.39-.6.96-1.06,1.7-1.38.74-.32,1.63-.47,2.68-.47,1.71,0,2.99.37,3.85,1.12.86.75,1.32,1.75,1.36,3l-2.75.12c-.12-.7-.37-1.2-.76-1.51-.39-.31-.97-.46-1.74-.46s-1.42.16-1.87.49c-.29.21-.44.49-.44.84,0,.32.14.6.41.83.35.29,1.19.59,2.52.91,1.34.31,2.32.64,2.96.98.64.34,1.14.8,1.5,1.38.36.58.54,1.31.54,2.17,0,.78-.22,1.51-.65,2.19-.43.68-1.05,1.19-1.84,1.52-.79.33-1.78.5-2.96.5-1.72,0-3.04-.4-3.96-1.19-.92-.79-1.47-1.95-1.65-3.47Z"/><path class="cls-3" d="m29.66,45.38v-11.3h-4.04v-2.3h10.81v2.3h-4.03v11.3h-2.75Z"/><path class="cls-3" d="m37.3,38.66c0-1.39.21-2.55.62-3.49.31-.69.73-1.31,1.27-1.87.54-.55,1.12-.96,1.76-1.22.85-.36,1.82-.54,2.93-.54,2,0,3.61.62,4.81,1.86s1.8,2.97,1.8,5.19-.6,3.91-1.79,5.15-2.79,1.86-4.79,1.86-3.63-.62-4.82-1.85c-1.19-1.23-1.79-2.93-1.79-5.1Zm2.83-.09c0,1.54.36,2.71,1.07,3.5.71.79,1.61,1.19,2.71,1.19s1.99-.39,2.69-1.18c.7-.79,1.05-1.97,1.05-3.55s-.34-2.72-1.03-3.49-1.59-1.15-2.72-1.15-2.04.39-2.74,1.16c-.69.78-1.04,1.95-1.04,3.51Z"/><path class="cls-3" d="m52.64,45.38v-13.6h4.41c1.67,0,2.76.07,3.27.2.78.2,1.43.65,1.96,1.33.53.68.79,1.57.79,2.65,0,.83-.15,1.54-.46,2.11s-.69,1.02-1.15,1.34c-.47.32-.94.54-1.42.64-.66.13-1.6.19-2.85.19h-1.79v5.13h-2.75Zm2.75-11.3v3.86h1.5c1.08,0,1.81-.07,2.17-.21.37-.14.65-.36.86-.67.21-.3.31-.66.31-1.06,0-.5-.15-.9-.44-1.22-.29-.32-.66-.52-1.1-.6-.33-.06-.99-.09-1.98-.09h-1.33Z"/></g><g class="cls-4"><path class="cls-2" d="m13.2,41l2.7-.3c.2.9.5,1.6,1,2s1.2.6,2,.6c.9,0,1.6-.2,2-.6.4-.4.7-.8.7-1.3,0-.3-.1-.6-.3-.8-.2-.2-.5-.4-1-.6-.3-.1-1.1-.3-2.2-.6-1.5-.4-2.5-.8-3.1-1.3-.8-.7-1.3-1.7-1.3-2.7,0-.7.2-1.3.6-1.9.4-.6,1-1.1,1.7-1.4.7-.3,1.6-.5,2.7-.5,1.7,0,3,.4,3.9,1.1.9.7,1.3,1.7,1.4,3l-2.7.1c-.1-.7-.4-1.2-.8-1.5s-1-.5-1.7-.5c-.8,0-1.4.2-1.9.5-.3.2-.4.5-.4.8s.1.6.4.8c.3.3,1.2.6,2.5.9,1.3.3,2.3.6,3,1,.6.3,1.1.8,1.5,1.4.4.6.5,1.3.5,2.2,0,.8-.2,1.5-.6,2.2s-1,1.2-1.8,1.5-1.8.5-3,.5c-1.7,0-3-.4-4-1.2-1-.8-1.6-1.9-1.8-3.4Z"/><path class="cls-2" d="m29.7,45.4v-11.3h-4v-2.3h10.8v2.3h-4v11.3s-2.8,0-2.8,0Z"/><path class="cls-2" d="m37.3,38.7c0-1.4.2-2.5.6-3.5.3-.7.7-1.3,1.3-1.9.5-.5,1.1-1,1.8-1.2.8-.4,1.8-.5,2.9-.5,2,0,3.6.6,4.8,1.9s1.8,3,1.8,5.2-.6,3.9-1.8,5.2-2.8,1.9-4.8,1.9-3.6-.6-4.8-1.9c-1.2-1.4-1.8-3.1-1.8-5.2Zm2.8-.1c0,1.5.4,2.7,1.1,3.5.7.8,1.6,1.2,2.7,1.2s2-.4,2.7-1.2,1.1-2,1.1-3.5c0-1.6-.3-2.7-1-3.5s-1.6-1.2-2.7-1.2-2,.4-2.7,1.2c-.8.7-1.2,1.9-1.2,3.5Z"/><path class="cls-2" d="m52.6,45.4v-13.6h4.4c1.7,0,2.8.1,3.3.2.8.2,1.4.6,2,1.3.5.7.8,1.6.8,2.6,0,.8-.2,1.5-.5,2.1s-.7,1-1.2,1.3-.9.5-1.4.6c-.7.1-1.6.2-2.8.2h-1.8v5.1h-2.8v.2Zm2.8-11.3v3.9h1.5c1.1,0,1.8-.1,2.2-.2.4-.1.7-.4.9-.7s.3-.7.3-1.1c0-.5-.1-.9-.4-1.2-.3-.3-.7-.5-1.1-.6-.3-.1-1-.1-2-.1,0,0-1.4,0-1.4,0Z"/></g></svg>