<?xml version="1.0" encoding="utf-8"?>
<!-- Generator: Adobe Illustrator 27.4.1, SVG Export Plug-In . SVG Version: 6.00 Build 0)  -->
<svg version="1.1" id="Ebene_1" xmlns="http://www.w3.org/2000/svg" xmlns:xlink="http://www.w3.org/1999/xlink" x="0px" y="0px"
	 viewBox="0 0 100 100" style="enable-background:new 0 0 100 100;" xml:space="preserve">
<style type="text/css">
	.st0{fill:#2A7FD4;}
	.st1{fill:none;stroke:#FFFFFF;stroke-width:8;}
	.st2{fill:#DDEEFF;}
	.st3{fill:#1A5FA0;}
	.st4{fill:#7EC8E3;}
	.st5{opacity:0.5;fill:#1A5FA0;enable-background:new    ;}
	.st6{fill:none;stroke:#E03030;stroke-width:9;}
	.st7{fill:none;stroke:#E03030;stroke-width:9;stroke-linecap:round;}
</style>
<path class="st0" d="M16,4h68c6.6,0,12,5.4,12,12v68c0,6.6-5.4,12-12,12H16C9.4,96,4,90.6,4,84V16C4,9.4,9.4,4,16,4z"/>
<path class="st1" d="M16,4h68c6.6,0,12,5.4,12,12v68c0,6.6-5.4,12-12,12H16C9.4,96,4,90.6,4,84V16C4,9.4,9.4,4,16,4z"/>
<path class="st2" d="M47,22h6c2.2,0,4,1.8,4,4v4c0,2.2-1.8,4-4,4h-6c-2.2,0-4-1.8-4-4v-4C43,23.8,44.8,22,47,22z"/>
<path class="st3" d="M48,16h4c1.7,0,3,1.3,3,3v3c0,1.7-1.3,3-3,3h-4c-1.7,0-3-1.3-3-3v-3C45,17.3,46.3,16,48,16z"/>
<path class="st2" d="M43,32h14c3.3,0,6,2.7,6,6v34c0,3.3-2.7,6-6,6H43c-3.3,0-6-2.7-6-6V38C37,34.7,39.7,32,43,32z"/>
<rect x="37" y="55" class="st4" width="26" height="23"/>
<path class="st5" d="M39,48h22c1.1,0,2,0.9,2,2v6c0,1.1-0.9,2-2,2H39c-1.1,0-2-0.9-2-2v-6C37,48.9,37.9,48,39,48z"/>
<circle class="st6" cx="50" cy="52" r="30"/>
<line class="st7" x1="29" y1="31" x2="71" y2="73"/>
</svg>
