<?xml version="1.0" encoding="utf-8"?>
<!-- Generator: Adobe Illustrator 27.4.1, SVG Export Plug-In . SVG Version: 6.00 Build 0)  -->
<svg version="1.1" id="Ebene_1" xmlns="http://www.w3.org/2000/svg" xmlns:xlink="http://www.w3.org/1999/xlink" x="0px" y="0px"
	 viewBox="0 0 100 100" style="enable-background:new 0 0 100 100;" xml:space="preserve">
<style type="text/css">
	.st0{fill:#7A7A7A;}
	.st1{fill:none;stroke:#FFFFFF;stroke-width:8;}
	.st2{enable-background:new    ;}
	.st3{fill:#FFFFFF;}
</style>
<path class="st0" d="M16,4h68c6.6,0,12,5.4,12,12v68c0,6.6-5.4,12-12,12H16C9.4,96,4,90.6,4,84V16C4,9.4,9.4,4,16,4z"/>
<path class="st1" d="M16,4h68c6.6,0,12,5.4,12,12v68c0,6.6-5.4,12-12,12H16C9.4,96,4,90.6,4,84V16C4,9.4,9.4,4,16,4z"/>
<g class="st2">
	<path class="st3" d="M31.7,55h-6.3v-0.6c0-1.1,0.1-1.9,0.4-2.6c0.2-0.7,0.6-1.3,1.1-1.8s1.6-1.5,3.2-2.9c0.9-0.7,1.3-1.4,1.3-2
		s-0.2-1.1-0.5-1.4C30.5,43.2,30,43,29.3,43c-0.8,0-1.4,0.3-2,0.8s-0.8,1.4-1,2.7l-6.4-0.8c0.2-2.4,1.1-4.3,2.6-5.7
		c1.5-1.4,3.8-2.2,6.9-2.2c2.4,0,4.4,0.5,5.8,1.5c2,1.4,3,3.2,3,5.4c0,0.9-0.3,1.8-0.8,2.7c-0.5,0.9-1.6,1.9-3.2,3.2
		c-1.1,0.9-1.8,1.6-2.1,2.1C31.8,53.4,31.7,54.1,31.7,55z M25.2,56.7h6.8v6h-6.8V56.7z"/>
	<path class="st3" d="M52.5,55h-6.3v-0.6c0-1.1,0.1-1.9,0.4-2.6c0.2-0.7,0.6-1.3,1.1-1.8s1.6-1.5,3.2-2.9c0.9-0.7,1.3-1.4,1.3-2
		s-0.2-1.1-0.5-1.4C51.3,43.2,50.8,43,50,43c-0.8,0-1.4,0.3-2,0.8s-0.8,1.4-1,2.7l-6.4-0.8c0.2-2.4,1.1-4.3,2.6-5.7
		c1.5-1.4,3.8-2.2,6.9-2.2c2.4,0,4.4,0.5,5.8,1.5c2,1.4,3,3.2,3,5.4c0,0.9-0.3,1.8-0.8,2.7c-0.5,0.9-1.6,1.9-3.2,3.2
		c-1.1,0.9-1.8,1.6-2.1,2.1C52.6,53.4,52.5,54.1,52.5,55z M45.9,56.7h6.8v6h-6.8V56.7z"/>
	<path class="st3" d="M73.2,55h-6.3v-0.6c0-1.1,0.1-1.9,0.4-2.6c0.2-0.7,0.6-1.3,1.1-1.8s1.6-1.5,3.2-2.9c0.9-0.7,1.3-1.4,1.3-2
		s-0.2-1.1-0.5-1.4c-0.4-0.3-0.9-0.5-1.6-0.5c-0.8,0-1.4,0.3-2,0.8s-0.8,1.4-1,2.7l-6.4-0.8c0.2-2.4,1.1-4.3,2.6-5.7
		c1.5-1.4,3.8-2.2,6.9-2.2c2.4,0,4.4,0.5,5.8,1.5c2,1.4,3,3.2,3,5.4c0,0.9-0.3,1.8-0.8,2.7c-0.5,0.9-1.6,1.9-3.2,3.2
		c-1.1,0.9-1.8,1.6-2.1,2.1C73.4,53.4,73.2,54.1,73.2,55z M66.7,56.7h6.8v6h-6.8V56.7z"/>
</g>
</svg>
