<?xml version="1.0" encoding="utf-8"?>
<!-- Generator: Adobe Illustrator 27.4.1, SVG Export Plug-In . SVG Version: 6.00 Build 0)  -->
<svg version="1.1" id="Ebene_1" xmlns="http://www.w3.org/2000/svg" xmlns:xlink="http://www.w3.org/1999/xlink" x="0px" y="0px"
	 viewBox="0 0 100 100" style="enable-background:new 0 0 100 100;" xml:space="preserve">
<style type="text/css">
	.st0{fill:#2F2F2F;}
	.st1{fill:none;stroke:#FFFFFF;stroke-width:8;}
	.st2{enable-background:new    ;}
	.st3{fill:#FFFFFF;}
</style>
<path class="st0" d="M16,4h68c6.6,0,12,5.4,12,12v68c0,6.6-5.4,12-12,12H16C9.4,96,4,90.6,4,84V16C4,9.4,9.4,4,16,4z"/>
<path class="st1" d="M16,4h68c6.6,0,12,5.4,12,12v68c0,6.6-5.4,12-12,12H16C9.4,96,4,90.6,4,84V16C4,9.4,9.4,4,16,4z"/>
<g class="st2">
	<path class="st3" d="M19.5,53l5.5-0.3c0.1,0.9,0.4,1.6,0.7,2c0.6,0.8,1.4,1.1,2.5,1.1c0.8,0,1.5-0.2,1.9-0.6
		c0.4-0.4,0.7-0.8,0.7-1.3c0-0.5-0.2-0.9-0.6-1.3s-1.4-0.7-2.9-1.1c-2.5-0.6-4.3-1.3-5.4-2.3c-1.1-0.9-1.6-2.1-1.6-3.6
		c0-1,0.3-1.9,0.8-2.7c0.6-0.8,1.4-1.5,2.5-2c1.1-0.5,2.6-0.7,4.6-0.7c2.4,0,4.2,0.4,5.4,1.3c1.2,0.9,2,2.3,2.2,4.2l-5.4,0.3
		c-0.1-0.8-0.4-1.4-0.9-1.8s-1.1-0.6-1.9-0.6c-0.7,0-1.2,0.1-1.5,0.4c-0.3,0.3-0.5,0.6-0.5,1c0,0.3,0.1,0.6,0.4,0.8
		c0.3,0.2,0.9,0.5,1.9,0.7c2.5,0.5,4.3,1.1,5.4,1.6c1.1,0.6,1.9,1.2,2.4,2.1s0.7,1.7,0.7,2.8c0,1.2-0.3,2.3-1,3.3s-1.6,1.8-2.8,2.3
		c-1.2,0.5-2.7,0.8-4.5,0.8c-3.2,0-5.4-0.6-6.6-1.8S19.6,54.9,19.5,53z"/>
	<path class="st3" d="M39.3,40.6H45v6.5h6.3v-6.5h5.8v18.6h-5.8v-7.5H45v7.5h-5.8V40.6z"/>
	<path class="st3" d="M60.9,40.6h5.8v6.5H73v-6.5h5.8v18.6H73v-7.5h-6.3v7.5h-5.8V40.6z"/>
</g>
</svg>
