<?xml version="1.0" encoding="utf-8"?>
<!-- Generator: Adobe Illustrator 27.4.1, SVG Export Plug-In . SVG Version: 6.00 Build 0)  -->
<svg version="1.1" id="Ebene_1" xmlns="http://www.w3.org/2000/svg" xmlns:xlink="http://www.w3.org/1999/xlink" x="0px" y="0px"
	 viewBox="0 0 100 100" style="enable-background:new 0 0 100 100;" xml:space="preserve">
<style type="text/css">
	.st0{fill:#D94141;}
	.st1{fill:none;stroke:#FFFFFF;stroke-width:8;}
	.st2{enable-background:new    ;}
	.st3{fill:#FFFFFF;}
</style>
<path class="st0" d="M16,4h68c6.6,0,12,5.4,12,12v68c0,6.6-5.4,12-12,12H16C9.4,96,4,90.6,4,84V16C4,9.4,9.4,4,16,4z"/>
<path class="st1" d="M16,4h68c6.6,0,12,5.4,12,12v68c0,6.6-5.4,12-12,12H16C9.4,96,4,90.6,4,84V16C4,9.4,9.4,4,16,4z"/>
<g class="st2">
	<path class="st3" d="M29.5,56.5H17.9v-5.2l11.6-13.8H35v14.1h2.9v4.9H35v4.3h-5.5V56.5z M29.5,51.6v-7.2l-6.1,7.2H29.5z"/>
	<path class="st3" d="M39.9,49.3c0-4.4,0.8-7.4,2.4-9.1c1.6-1.7,4-2.6,7.2-2.6c1.5,0,2.8,0.2,3.8,0.6c1,0.4,1.8,0.9,2.4,1.5
		s1.1,1.2,1.5,1.9s0.6,1.5,0.9,2.4c0.4,1.7,0.6,3.5,0.6,5.3c0,4.2-0.7,7.2-2.1,9.1c-1.4,1.9-3.8,2.9-7.3,2.9c-1.9,0-3.5-0.3-4.7-0.9
		s-2.2-1.5-2.9-2.7c-0.6-0.8-1-2-1.3-3.5C40,52.6,39.9,51,39.9,49.3z M46.2,49.3c0,2.9,0.3,4.9,0.8,6c0.5,1.1,1.3,1.6,2.2,1.6
		c0.6,0,1.2-0.2,1.7-0.7c0.5-0.5,0.8-1.2,1-2.1c0.2-1,0.3-2.5,0.3-4.6c0-3-0.3-5.1-0.8-6.1c-0.5-1-1.3-1.6-2.3-1.6
		c-1.1,0-1.8,0.5-2.3,1.6C46.4,44.4,46.2,46.4,46.2,49.3z"/>
	<path class="st3" d="M72.1,56.5H60.5v-5.2l11.6-13.8h5.5v14.1h2.9v4.9h-2.9v4.3h-5.5V56.5z M72.1,51.6v-7.2L66,51.6H72.1z"/>
</g>
</svg>
