<?xml version="1.0" encoding="utf-8"?>
<svg version="1.1" xmlns="http://www.w3.org/2000/svg" viewBox="0 0 100 100" style="enable-background:new 0 0 100 100;" xml:space="preserve">
<style type="text/css">
	.st0{fill:#2457D6;}
	.st1{fill:none;stroke:#FFFFFF;stroke-width:8;}
	.st2{fill:#FFFFFF;}
</style>
<path class="st0" d="M16,4h68c6.6,0,12,5.4,12,12v68c0,6.6-5.4,12-12,12H16C9.4,96,4,90.6,4,84V16C4,9.4,9.4,4,16,4z"/>
<path class="st1" d="M16,4h68c6.6,0,12,5.4,12,12v68c0,6.6-5.4,12-12,12H16C9.4,96,4,90.6,4,84V16C4,9.4,9.4,4,16,4z"/>
<path class="st2" d="M37,24h18c9.4,0,17,7.6,17,17s-7.6,17-17,17H45v14c0,2.8-2.2,5-5,5h-3c-2.8,0-5-2.2-5-5V29C32,26.2,34.2,24,37,24z M45,34v14h10c3.9,0,7-3.1,7-7s-3.1-7-7-7H45z"/>
</svg>
